MFile 1 4 120
MTrk
0 TimeSig 4/4 24 8
0 Tempo 600000
0 Meta TrkEnd
TrkEnd
MTrk
480 On ch=1 n=59 v=64
600 On ch=1 n=59 v=0
600 On ch=1 n=63 v=64
720 On ch=1 n=63 v=0
720 On ch=1 n=64 v=64
840 On ch=1 n=64 v=0
960 On ch=1 n=64 v=64
1080 On ch=1 n=64 v=0
1080 On ch=1 n=61 v=64
1199 On ch=1 n=59 v=64
1200 On ch=1 n=61 v=0
1319 On ch=1 n=59 v=0
1439 On ch=1 n=59 v=64
1559 On ch=1 n=59 v=0
1559 On ch=1 n=59 v=64
1679 On ch=1 n=59 v=0
1679 On ch=1 n=64 v=64
1799 On ch=1 n=64 v=0
1799 On ch=1 n=64 v=64
1919 On ch=1 n=64 v=0
1919 On ch=1 n=64 v=64
2039 On ch=1 n=64 v=0
2039 On ch=1 n=64 v=64
2159 On ch=1 n=64 v=0
2159 On ch=1 n=64 v=64
2999 On ch=1 n=64 v=0
2999 On ch=1 n=63 v=64
3119 On ch=1 n=63 v=0
3119 On ch=1 n=64 v=64
3239 On ch=1 n=64 v=0
3359 On ch=1 n=59 v=64
3480 On ch=1 n=59 v=0
3480 On ch=1 n=63 v=64
3600 On ch=1 n=63 v=0
3600 On ch=1 n=64 v=64
3720 On ch=1 n=64 v=0
4080 On ch=1 n=66 v=64
4500 On ch=1 n=66 v=0
4500 On ch=1 n=63 v=64
4560 On ch=1 n=63 v=0
4560 On ch=1 n=63 v=64
4680 On ch=1 n=63 v=0
4680 On ch=1 n=61 v=64
4740 On ch=1 n=61 v=0
5040 On ch=1 n=64 v=64
5460 On ch=1 n=64 v=0
5460 On ch=1 n=64 v=64
5520 On ch=1 n=64 v=0
5520 On ch=1 n=64 v=64
5640 On ch=1 n=64 v=0
5640 On ch=1 n=63 v=64
5760 On ch=1 n=63 v=0
5760 On ch=1 n=66 v=64
5940 On ch=1 n=66 v=0
5940 On ch=1 n=66 v=64
6000 On ch=1 n=66 v=0
6000 On ch=1 n=66 v=64
6120 On ch=1 n=66 v=0
6120 On ch=1 n=64 v=64
6240 On ch=1 n=64 v=0
6240 On ch=1 n=64 v=64
6480 On ch=1 n=64 v=0
6480 On ch=1 n=63 v=64
6540 On ch=1 n=63 v=0
6540 On ch=1 n=71 v=64
6660 On ch=1 n=71 v=0
6660 On ch=1 n=69 v=64
6780 On ch=1 n=69 v=0
6780 On ch=1 n=68 v=64
6900 On ch=1 n=68 v=0
6900 On ch=1 n=66 v=64
7020 On ch=1 n=66 v=0
7020 On ch=1 n=64 v=64
7140 On ch=1 n=64 v=0
7140 On ch=1 n=63 v=64
7200 On ch=1 n=63 v=0
7200 On ch=1 n=61 v=64
7260 On ch=1 n=61 v=0
7260 On ch=1 n=61 v=64
7320 On ch=1 n=61 v=0
7320 On ch=1 n=61 v=64
7380 On ch=1 n=61 v=0
7380 On ch=1 n=61 v=64
7440 On ch=1 n=61 v=0
7440 On ch=1 n=61 v=64
7500 On ch=1 n=61 v=0
7500 On ch=1 n=61 v=64
7559 On ch=1 n=61 v=0
7560 On ch=1 n=61 v=64
7619 On ch=1 n=61 v=0
7619 On ch=1 n=61 v=64
7679 On ch=1 n=61 v=0
7679 On ch=1 n=63 v=64
7739 On ch=1 n=63 v=0
7739 On ch=1 n=63 v=64
7799 On ch=1 n=63 v=0
7799 On ch=1 n=63 v=64
7859 On ch=1 n=63 v=0
7859 On ch=1 n=63 v=64
7919 On ch=1 n=63 v=0
7919 On ch=1 n=63 v=64
7979 On ch=1 n=63 v=0
7979 On ch=1 n=63 v=64
8039 On ch=1 n=63 v=0
8039 On ch=1 n=63 v=64
8099 On ch=1 n=63 v=0
8099 On ch=1 n=63 v=64
8159 On ch=1 n=63 v=0
8159 On ch=1 n=56 v=64
8219 On ch=1 n=56 v=0
8219 On ch=1 n=56 v=64
8279 On ch=1 n=56 v=0
8279 On ch=1 n=56 v=64
8339 On ch=1 n=56 v=0
8339 On ch=1 n=56 v=64
8399 On ch=1 n=56 v=0
8399 On ch=1 n=56 v=64
8519 On ch=1 n=56 v=0
8519 On ch=1 n=61 v=64
8699 On ch=1 n=61 v=0
8699 On ch=1 n=61 v=64
8759 On ch=1 n=61 v=0
8759 On ch=1 n=61 v=64
8819 On ch=1 n=61 v=0
8939 On ch=1 n=58 v=64
8999 On ch=1 n=58 v=0
8999 On ch=1 n=58 v=64
9059 On ch=1 n=58 v=0
9179 On ch=1 n=70 v=64
9239 On ch=1 n=70 v=0
9299 On ch=1 n=70 v=64
9359 On ch=1 n=70 v=0
9419 On ch=1 n=70 v=64
9479 On ch=1 n=70 v=0
9539 On ch=1 n=70 v=64
9599 On ch=1 n=70 v=0
9599 On ch=1 n=70 v=64
9719 On ch=1 n=70 v=0
10139 On ch=1 n=68 v=64
10199 On ch=1 n=68 v=0
10199 On ch=1 n=66 v=64
10259 On ch=1 n=66 v=0
10259 On ch=1 n=64 v=64
10319 On ch=1 n=64 v=0
10319 On ch=1 n=63 v=64
10379 On ch=1 n=63 v=0
10379 On ch=1 n=61 v=64
10439 On ch=1 n=61 v=0
10439 On ch=1 n=62 v=64
10619 On ch=1 n=62 v=0
10619 On ch=1 n=61 v=64
10679 On ch=1 n=61 v=0
10679 On ch=1 n=64 v=64
10739 On ch=1 n=64 v=0
10739 On ch=1 n=62 v=64
10859 On ch=1 n=62 v=0
10859 On ch=1 n=61 v=64
10919 On ch=1 n=61 v=0
10919 On ch=1 n=64 v=64
10979 On ch=1 n=64 v=0
10979 On ch=1 n=62 v=64
11099 On ch=1 n=62 v=0
11099 On ch=1 n=61 v=64
11159 On ch=1 n=61 v=0
11159 On ch=1 n=63 v=64
11219 On ch=1 n=63 v=0
11219 On ch=1 n=64 v=64
11279 On ch=1 n=64 v=0
11279 On ch=1 n=66 v=64
11339 On ch=1 n=66 v=0
11339 On ch=1 n=59 v=64
11399 On ch=1 n=59 v=0
11399 On ch=1 n=61 v=64
11459 On ch=1 n=61 v=0
11459 On ch=1 n=63 v=64
11519 On ch=1 n=63 v=0
11519 On ch=1 n=64 v=64
11579 On ch=1 n=64 v=0
11579 On ch=1 n=61 v=64
11639 On ch=1 n=61 v=0
11639 On ch=1 n=63 v=64
11699 On ch=1 n=63 v=0
11699 On ch=1 n=58 v=64
11759 On ch=1 n=58 v=0
11759 On ch=1 n=59 v=64
11819 On ch=1 n=59 v=0
11819 On ch=1 n=58 v=64
11879 On ch=1 n=58 v=0
11879 On ch=1 n=59 v=64
11939 On ch=1 n=59 v=0
11939 On ch=1 n=61 v=64
11999 On ch=1 n=61 v=0
11999 On ch=1 n=59 v=64
12119 On ch=1 n=59 v=0
12179 On ch=1 n=61 v=64
12239 On ch=1 n=61 v=0
12239 On ch=1 n=59 v=64
12359 On ch=1 n=59 v=0
12419 On ch=1 n=61 v=64
12479 On ch=1 n=61 v=0
12479 On ch=1 n=59 v=64
12539 On ch=1 n=59 v=0
12599 On ch=1 n=66 v=64
12659 On ch=1 n=66 v=0
12719 On ch=1 n=59 v=64
12779 On ch=1 n=59 v=0
12839 On ch=1 n=71 v=64
12899 On ch=1 n=71 v=0
12899 On ch=1 n=66 v=64
12959 On ch=1 n=66 v=0
12959 On ch=1 n=66 v=64
13199 On ch=1 n=66 v=0
13199 On ch=1 n=59 v=64
13319 On ch=1 n=59 v=0
13319 On ch=1 n=78 v=64
13379 On ch=1 n=78 v=0
13379 On ch=1 n=78 v=64
13439 On ch=1 n=78 v=0
13439 On ch=1 n=78 v=64
13799 On ch=1 n=78 v=0
13919 On ch=1 n=76 v=64
14009 On ch=1 n=76 v=0
14009 On ch=1 n=75 v=64
14039 On ch=1 n=75 v=0
14039 On ch=1 n=76 v=64
14069 On ch=1 n=76 v=0
14069 On ch=1 n=75 v=64
14099 On ch=1 n=75 v=0
14099 On ch=1 n=76 v=64
14129 On ch=1 n=76 v=0
14129 On ch=1 n=75 v=64
14159 On ch=1 n=75 v=0
14159 On ch=1 n=76 v=64
14219 On ch=1 n=76 v=0
14219 On ch=1 n=76 v=64
14279 On ch=1 n=76 v=0
14279 On ch=1 n=75 v=64
14339 On ch=1 n=75 v=0
14339 On ch=1 n=73 v=64
14399 On ch=1 n=73 v=0
14399 On ch=1 n=71 v=64
14429 On ch=1 n=71 v=0
14429 On ch=1 n=75 v=64
14519 On ch=1 n=75 v=0
14519 On ch=1 n=75 v=64
14579 On ch=1 n=75 v=0
14579 On ch=1 n=71 v=64
14639 On ch=1 n=71 v=0
14639 On ch=1 n=71 v=64
14699 On ch=1 n=71 v=0
14699 On ch=1 n=71 v=64
14759 On ch=1 n=71 v=0
14759 On ch=1 n=70 v=64
14819 On ch=1 n=70 v=0
14819 On ch=1 n=70 v=64
14879 On ch=1 n=70 v=0
14879 On ch=1 n=59 v=64
14999 On ch=1 n=59 v=0
15059 On ch=1 n=61 v=64
15119 On ch=1 n=61 v=0
15119 On ch=1 n=59 v=64
15239 On ch=1 n=59 v=0
15299 On ch=1 n=61 v=64
15359 On ch=1 n=61 v=0
15359 On ch=1 n=59 v=64
15419 On ch=1 n=59 v=0
15479 On ch=1 n=66 v=64
15539 On ch=1 n=66 v=0
15599 On ch=1 n=68 v=64
15659 On ch=1 n=68 v=0
15719 On ch=1 n=71 v=64
15779 On ch=1 n=71 v=0
15779 On ch=1 n=66 v=64
15839 On ch=1 n=66 v=0
15839 On ch=1 n=66 v=64
16079 On ch=1 n=66 v=0
16079 On ch=1 n=59 v=64
16199 On ch=1 n=59 v=0
16199 On ch=1 n=78 v=64
16259 On ch=1 n=78 v=0
16259 On ch=1 n=78 v=64
16319 On ch=1 n=78 v=0
16319 On ch=1 n=78 v=64
16679 On ch=1 n=78 v=0
16799 On ch=1 n=76 v=64
16889 On ch=1 n=76 v=0
16889 On ch=1 n=75 v=64
16919 On ch=1 n=75 v=0
16919 On ch=1 n=76 v=64
16949 On ch=1 n=76 v=0
16949 On ch=1 n=75 v=64
16979 On ch=1 n=75 v=0
16979 On ch=1 n=76 v=64
17009 On ch=1 n=76 v=0
17009 On ch=1 n=75 v=64
17039 On ch=1 n=75 v=0
17039 On ch=1 n=76 v=64
17099 On ch=1 n=76 v=0
17099 On ch=1 n=76 v=64
17159 On ch=1 n=76 v=0
17159 On ch=1 n=75 v=64
17219 On ch=1 n=75 v=0
17219 On ch=1 n=73 v=64
17279 On ch=1 n=73 v=0
17279 On ch=1 n=71 v=64
17519 On ch=1 n=71 v=0
17519 On ch=1 n=70 v=64
17759 On ch=1 n=70 v=0
17759 On ch=1 n=66 v=64
17819 On ch=1 n=66 v=0
17819 On ch=1 n=68 v=64
17879 On ch=1 n=68 v=0
17879 On ch=1 n=69 v=64
17939 On ch=1 n=69 v=0
17939 On ch=1 n=66 v=64
17999 On ch=1 n=66 v=0
17999 On ch=1 n=65 v=64
18239 On ch=1 n=65 v=0
18239 On ch=1 n=64 v=64
18299 On ch=1 n=64 v=0
18299 On ch=1 n=66 v=64
18359 On ch=1 n=66 v=0
18359 On ch=1 n=68 v=64
18419 On ch=1 n=68 v=0
18419 On ch=1 n=64 v=64
18479 On ch=1 n=64 v=0
18479 On ch=1 n=63 v=64
18719 On ch=1 n=63 v=0
18719 On ch=1 n=64 v=64
18779 On ch=1 n=64 v=0
18779 On ch=1 n=80 v=64
18839 On ch=1 n=80 v=0
18839 On ch=1 n=80 v=64
18959 On ch=1 n=80 v=0
19199 On ch=1 n=71 v=64
19229 On ch=1 n=71 v=0
19229 On ch=1 n=75 v=64
19319 On ch=1 n=75 v=0
19319 On ch=1 n=75 v=64
19379 On ch=1 n=75 v=0
19379 On ch=1 n=71 v=64
19439 On ch=1 n=71 v=0
19439 On ch=1 n=71 v=64
19499 On ch=1 n=71 v=0
19499 On ch=1 n=71 v=64
19559 On ch=1 n=71 v=0
19559 On ch=1 n=70 v=64
19619 On ch=1 n=70 v=0
19619 On ch=1 n=64 v=64
19679 On ch=1 n=64 v=0
19679 On ch=1 n=63 v=64
19739 On ch=1 n=63 v=0
19739 On ch=1 n=64 v=64
19799 On ch=1 n=64 v=0
19799 On ch=1 n=66 v=64
19859 On ch=1 n=66 v=0
19859 On ch=1 n=69 v=64
19919 On ch=1 n=69 v=0
19919 On ch=1 n=68 v=64
20099 On ch=1 n=68 v=0
20099 On ch=1 n=64 v=64
20159 On ch=1 n=64 v=0
20159 On ch=1 n=63 v=64
20219 On ch=1 n=63 v=0
20219 On ch=1 n=64 v=64
20279 On ch=1 n=64 v=0
20279 On ch=1 n=66 v=64
20339 On ch=1 n=66 v=0
20339 On ch=1 n=69 v=64
20399 On ch=1 n=69 v=0
20399 On ch=1 n=68 v=64
20579 On ch=1 n=68 v=0
20579 On ch=1 n=64 v=64
20639 On ch=1 n=64 v=0
20639 On ch=1 n=64 v=64
20879 On ch=1 n=64 v=0
20879 On ch=1 n=63 v=64
20999 On ch=1 n=63 v=0
21119 On ch=1 n=59 v=64
21239 On ch=1 n=59 v=0
21239 On ch=1 n=63 v=64
21359 On ch=1 n=63 v=0
21359 On ch=1 n=64 v=64
21479 On ch=1 n=64 v=0
21599 On ch=1 n=64 v=64
21719 On ch=1 n=64 v=0
21719 On ch=1 n=61 v=64
21839 On ch=1 n=61 v=0
21839 On ch=1 n=59 v=64
21959 On ch=1 n=59 v=0
22079 On ch=1 n=59 v=64
22199 On ch=1 n=59 v=0
22199 On ch=1 n=59 v=64
22319 On ch=1 n=59 v=0
22319 On ch=1 n=64 v=64
22439 On ch=1 n=64 v=0
22439 On ch=1 n=64 v=64
22559 On ch=1 n=64 v=0
22559 On ch=1 n=64 v=64
22679 On ch=1 n=64 v=0
22679 On ch=1 n=64 v=64
22799 On ch=1 n=64 v=0
22799 On ch=1 n=64 v=64
23639 On ch=1 n=64 v=0
23639 On ch=1 n=63 v=64
23759 On ch=1 n=63 v=0
23759 On ch=1 n=64 v=64
23879 On ch=1 n=64 v=0
23999 On ch=1 n=59 v=64
24119 On ch=1 n=59 v=0
24119 On ch=1 n=63 v=64
24239 On ch=1 n=63 v=0
24239 On ch=1 n=64 v=64
24359 On ch=1 n=64 v=0
24719 On ch=1 n=66 v=64
25139 On ch=1 n=66 v=0
25139 On ch=1 n=63 v=64
25199 On ch=1 n=63 v=0
25199 On ch=1 n=63 v=64
25319 On ch=1 n=63 v=0
25319 On ch=1 n=61 v=64
25379 On ch=1 n=61 v=0
25679 On ch=1 n=64 v=64
26099 On ch=1 n=64 v=0
26099 On ch=1 n=64 v=64
26159 On ch=1 n=64 v=0
26159 On ch=1 n=64 v=64
26279 On ch=1 n=64 v=0
26279 On ch=1 n=63 v=64
26399 On ch=1 n=63 v=0
26399 On ch=1 n=66 v=64
26579 On ch=1 n=66 v=0
26579 On ch=1 n=66 v=64
26639 On ch=1 n=66 v=0
26639 On ch=1 n=66 v=64
26759 On ch=1 n=66 v=0
26759 On ch=1 n=64 v=64
26879 On ch=1 n=64 v=0
26879 On ch=1 n=64 v=64
27119 On ch=1 n=64 v=0
27119 On ch=1 n=63 v=64
27179 On ch=1 n=63 v=0
27179 On ch=1 n=71 v=64
27299 On ch=1 n=71 v=0
27299 On ch=1 n=69 v=64
27419 On ch=1 n=69 v=0
27419 On ch=1 n=68 v=64
27539 On ch=1 n=68 v=0
27539 On ch=1 n=66 v=64
27659 On ch=1 n=66 v=0
27659 On ch=1 n=64 v=64
27779 On ch=1 n=64 v=0
27779 On ch=1 n=63 v=64
27839 On ch=1 n=63 v=0
27839 On ch=1 n=61 v=64
27899 On ch=1 n=61 v=0
27899 On ch=1 n=61 v=64
27959 On ch=1 n=61 v=0
27959 On ch=1 n=61 v=64
28019 On ch=1 n=61 v=0
28019 On ch=1 n=61 v=64
28079 On ch=1 n=61 v=0
28079 On ch=1 n=61 v=64
28139 On ch=1 n=61 v=0
28139 On ch=1 n=61 v=64
28199 On ch=1 n=61 v=0
28199 On ch=1 n=61 v=64
28259 On ch=1 n=61 v=0
28259 On ch=1 n=61 v=64
28319 On ch=1 n=61 v=0
28319 On ch=1 n=63 v=64
28379 On ch=1 n=63 v=0
28379 On ch=1 n=63 v=64
28439 On ch=1 n=63 v=0
28439 On ch=1 n=63 v=64
28499 On ch=1 n=63 v=0
28499 On ch=1 n=63 v=64
28559 On ch=1 n=63 v=0
28559 On ch=1 n=63 v=64
28619 On ch=1 n=63 v=0
28619 On ch=1 n=63 v=64
28679 On ch=1 n=63 v=0
28679 On ch=1 n=63 v=64
28739 On ch=1 n=63 v=0
28739 On ch=1 n=63 v=64
28799 On ch=1 n=63 v=0
28799 On ch=1 n=56 v=64
28859 On ch=1 n=56 v=0
28859 On ch=1 n=56 v=64
28919 On ch=1 n=56 v=0
28919 On ch=1 n=56 v=64
28979 On ch=1 n=56 v=0
28979 On ch=1 n=56 v=64
29039 On ch=1 n=56 v=0
29039 On ch=1 n=56 v=64
29159 On ch=1 n=56 v=0
29159 On ch=1 n=61 v=64
29339 On ch=1 n=61 v=0
29339 On ch=1 n=61 v=64
29399 On ch=1 n=61 v=0
29399 On ch=1 n=61 v=64
29459 On ch=1 n=61 v=0
29579 On ch=1 n=58 v=64
29639 On ch=1 n=58 v=0
29639 On ch=1 n=58 v=64
29699 On ch=1 n=58 v=0
29819 On ch=1 n=70 v=64
29879 On ch=1 n=70 v=0
29939 On ch=1 n=70 v=64
29999 On ch=1 n=70 v=0
30059 On ch=1 n=70 v=64
30119 On ch=1 n=70 v=0
30179 On ch=1 n=70 v=64
30239 On ch=1 n=70 v=0
30239 On ch=1 n=70 v=64
30359 On ch=1 n=70 v=0
30779 On ch=1 n=68 v=64
30839 On ch=1 n=68 v=0
30839 On ch=1 n=66 v=64
30899 On ch=1 n=66 v=0
30899 On ch=1 n=64 v=64
30959 On ch=1 n=64 v=0
30959 On ch=1 n=63 v=64
31019 On ch=1 n=63 v=0
31019 On ch=1 n=61 v=64
31079 On ch=1 n=61 v=0
31080 On ch=1 n=62 v=64
31260 On ch=1 n=62 v=0
31260 On ch=1 n=61 v=64
31320 On ch=1 n=61 v=0
31320 On ch=1 n=64 v=64
31380 On ch=1 n=64 v=0
31380 On ch=1 n=62 v=64
31500 On ch=1 n=62 v=0
31500 On ch=1 n=61 v=64
31560 On ch=1 n=61 v=0
31560 On ch=1 n=64 v=64
31620 On ch=1 n=64 v=0
31620 On ch=1 n=62 v=64
31740 On ch=1 n=62 v=0
31740 On ch=1 n=61 v=64
31800 On ch=1 n=61 v=0
31800 On ch=1 n=63 v=64
31860 On ch=1 n=63 v=0
31860 On ch=1 n=64 v=64
31920 On ch=1 n=64 v=0
31920 On ch=1 n=66 v=64
31980 On ch=1 n=66 v=0
31980 On ch=1 n=59 v=64
32040 On ch=1 n=59 v=0
32040 On ch=1 n=61 v=64
32100 On ch=1 n=61 v=0
32100 On ch=1 n=63 v=64
32160 On ch=1 n=63 v=0
32160 On ch=1 n=64 v=64
32220 On ch=1 n=64 v=0
32220 On ch=1 n=61 v=64
32280 On ch=1 n=61 v=0
32280 On ch=1 n=63 v=64
32340 On ch=1 n=63 v=0
32340 On ch=1 n=58 v=64
32400 On ch=1 n=58 v=0
32400 On ch=1 n=59 v=64
32460 On ch=1 n=59 v=0
32460 On ch=1 n=58 v=64
32520 On ch=1 n=58 v=0
32520 On ch=1 n=59 v=64
32580 On ch=1 n=59 v=0
32580 On ch=1 n=61 v=64
32640 On ch=1 n=61 v=0
32640 On ch=1 n=59 v=64
32760 On ch=1 n=59 v=0
32820 On ch=1 n=61 v=64
32880 On ch=1 n=61 v=0
32880 On ch=1 n=59 v=64
33000 On ch=1 n=59 v=0
33060 On ch=1 n=61 v=64
33120 On ch=1 n=61 v=0
33120 On ch=1 n=59 v=64
33180 On ch=1 n=59 v=0
33240 On ch=1 n=66 v=64
33300 On ch=1 n=66 v=0
33360 On ch=1 n=59 v=64
33420 On ch=1 n=59 v=0
33480 On ch=1 n=71 v=64
33540 On ch=1 n=71 v=0
33540 On ch=1 n=66 v=64
33600 On ch=1 n=66 v=0
33600 On ch=1 n=66 v=64
33840 On ch=1 n=66 v=0
33840 On ch=1 n=59 v=64
33960 On ch=1 n=59 v=0
33960 On ch=1 n=78 v=64
34020 On ch=1 n=78 v=0
34020 On ch=1 n=78 v=64
34080 On ch=1 n=78 v=0
34080 On ch=1 n=78 v=64
34440 On ch=1 n=78 v=0
34560 On ch=1 n=76 v=64
34650 On ch=1 n=76 v=0
34650 On ch=1 n=75 v=64
34680 On ch=1 n=75 v=0
34680 On ch=1 n=76 v=64
34710 On ch=1 n=76 v=0
34710 On ch=1 n=75 v=64
34740 On ch=1 n=75 v=0
34740 On ch=1 n=76 v=64
34770 On ch=1 n=76 v=0
34770 On ch=1 n=75 v=64
34800 On ch=1 n=75 v=0
34800 On ch=1 n=76 v=64
34860 On ch=1 n=76 v=0
34860 On ch=1 n=76 v=64
34920 On ch=1 n=76 v=0
34920 On ch=1 n=75 v=64
34980 On ch=1 n=75 v=0
34980 On ch=1 n=73 v=64
35040 On ch=1 n=73 v=0
35040 On ch=1 n=71 v=64
35070 On ch=1 n=71 v=0
35070 On ch=1 n=75 v=64
35160 On ch=1 n=75 v=0
35160 On ch=1 n=75 v=64
35220 On ch=1 n=75 v=0
35220 On ch=1 n=71 v=64
35280 On ch=1 n=71 v=0
35280 On ch=1 n=71 v=64
35340 On ch=1 n=71 v=0
35340 On ch=1 n=71 v=64
35400 On ch=1 n=71 v=0
35400 On ch=1 n=70 v=64
35460 On ch=1 n=70 v=0
35460 On ch=1 n=70 v=64
35520 On ch=1 n=70 v=0
35520 On ch=1 n=59 v=64
35640 On ch=1 n=59 v=0
35700 On ch=1 n=61 v=64
35760 On ch=1 n=61 v=0
35760 On ch=1 n=59 v=64
35880 On ch=1 n=59 v=0
35940 On ch=1 n=61 v=64
36000 On ch=1 n=61 v=0
36000 On ch=1 n=59 v=64
36060 On ch=1 n=59 v=0
36120 On ch=1 n=66 v=64
36180 On ch=1 n=66 v=0
36240 On ch=1 n=68 v=64
36300 On ch=1 n=68 v=0
36360 On ch=1 n=71 v=64
36420 On ch=1 n=71 v=0
36420 On ch=1 n=66 v=64
36480 On ch=1 n=66 v=0
36480 On ch=1 n=66 v=64
36720 On ch=1 n=66 v=0
36720 On ch=1 n=59 v=64
36840 On ch=1 n=59 v=0
36840 On ch=1 n=78 v=64
36900 On ch=1 n=78 v=0
36900 On ch=1 n=78 v=64
36960 On ch=1 n=78 v=0
36960 On ch=1 n=78 v=64
37320 On ch=1 n=78 v=0
37440 On ch=1 n=76 v=64
37530 On ch=1 n=76 v=0
37530 On ch=1 n=75 v=64
37560 On ch=1 n=75 v=0
37560 On ch=1 n=76 v=64
37590 On ch=1 n=76 v=0
37590 On ch=1 n=75 v=64
37620 On ch=1 n=75 v=0
37620 On ch=1 n=76 v=64
37650 On ch=1 n=76 v=0
37650 On ch=1 n=75 v=64
37680 On ch=1 n=75 v=0
37680 On ch=1 n=76 v=64
37740 On ch=1 n=76 v=0
37740 On ch=1 n=76 v=64
37800 On ch=1 n=76 v=0
37800 On ch=1 n=75 v=64
37860 On ch=1 n=75 v=0
37860 On ch=1 n=73 v=64
37920 On ch=1 n=73 v=0
37920 On ch=1 n=71 v=64
38160 On ch=1 n=71 v=0
38160 On ch=1 n=70 v=64
38400 On ch=1 n=70 v=0
38400 On ch=1 n=66 v=64
38460 On ch=1 n=66 v=0
38460 On ch=1 n=68 v=64
38520 On ch=1 n=68 v=0
38520 On ch=1 n=69 v=64
38580 On ch=1 n=69 v=0
38580 On ch=1 n=66 v=64
38640 On ch=1 n=66 v=0
38640 On ch=1 n=65 v=64
38880 On ch=1 n=65 v=0
38880 On ch=1 n=64 v=64
38940 On ch=1 n=64 v=0
38940 On ch=1 n=66 v=64
39000 On ch=1 n=66 v=0
39000 On ch=1 n=68 v=64
39060 On ch=1 n=68 v=0
39060 On ch=1 n=64 v=64
39120 On ch=1 n=64 v=0
39120 On ch=1 n=63 v=64
39360 On ch=1 n=63 v=0
39360 On ch=1 n=64 v=64
39420 On ch=1 n=64 v=0
39420 On ch=1 n=80 v=64
39480 On ch=1 n=80 v=0
39480 On ch=1 n=80 v=64
39600 On ch=1 n=80 v=0
39840 On ch=1 n=71 v=64
39870 On ch=1 n=71 v=0
39870 On ch=1 n=75 v=64
39960 On ch=1 n=75 v=0
39960 On ch=1 n=75 v=64
40020 On ch=1 n=75 v=0
40020 On ch=1 n=71 v=64
40080 On ch=1 n=71 v=0
40080 On ch=1 n=71 v=64
40140 On ch=1 n=71 v=0
40140 On ch=1 n=71 v=64
40200 On ch=1 n=71 v=0
40200 On ch=1 n=70 v=64
40260 On ch=1 n=70 v=0
40260 On ch=1 n=64 v=64
40320 On ch=1 n=64 v=0
40320 On ch=1 n=63 v=64
40380 On ch=1 n=63 v=0
40380 On ch=1 n=64 v=64
40440 On ch=1 n=64 v=0
40440 On ch=1 n=66 v=64
40500 On ch=1 n=66 v=0
40500 On ch=1 n=69 v=64
40560 On ch=1 n=69 v=0
40560 On ch=1 n=68 v=64
40740 On ch=1 n=68 v=0
40740 On ch=1 n=64 v=64
40800 On ch=1 n=64 v=0
40800 On ch=1 n=63 v=64
40860 On ch=1 n=63 v=0
40860 On ch=1 n=64 v=64
40920 On ch=1 n=64 v=0
40920 On ch=1 n=66 v=64
40980 On ch=1 n=66 v=0
40980 On ch=1 n=69 v=64
41040 On ch=1 n=69 v=0
41040 On ch=1 n=68 v=64
41220 On ch=1 n=68 v=0
41220 On ch=1 n=64 v=64
41280 On ch=1 n=64 v=0
41280 On ch=1 n=64 v=64
41520 On ch=1 n=64 v=0
41520 On ch=1 n=63 v=64
41640 On ch=1 n=63 v=0
42060 On ch=1 n=83 v=64
42120 On ch=1 n=83 v=0
42120 On ch=1 n=81 v=64
42180 On ch=1 n=81 v=0
42180 On ch=1 n=80 v=64
42240 On ch=1 n=80 v=0
42240 On ch=1 n=78 v=64
42360 On ch=1 n=78 v=0
42540 On ch=1 n=78 v=64
42600 On ch=1 n=78 v=0
42600 On ch=1 n=76 v=64
42660 On ch=1 n=76 v=0
42660 On ch=1 n=75 v=64
42720 On ch=1 n=75 v=0
42720 On ch=1 n=73 v=64
42840 On ch=1 n=73 v=0
43020 On ch=1 n=73 v=64
43080 On ch=1 n=73 v=0
43080 On ch=1 n=71 v=64
43140 On ch=1 n=71 v=0
43140 On ch=1 n=70 v=64
43200 On ch=1 n=70 v=0
43200 On ch=1 n=71 v=64
43260 On ch=1 n=71 v=0
43260 On ch=1 n=71 v=64
43320 On ch=1 n=71 v=0
43320 On ch=1 n=71 v=64
43380 On ch=1 n=71 v=0
43380 On ch=1 n=71 v=64
43440 On ch=1 n=71 v=0
43440 On ch=1 n=71 v=64
43500 On ch=1 n=71 v=0
43500 On ch=1 n=71 v=64
43560 On ch=1 n=71 v=0
43560 On ch=1 n=71 v=64
43620 On ch=1 n=71 v=0
43620 On ch=1 n=71 v=64
43680 On ch=1 n=71 v=0
43680 On ch=1 n=70 v=64
43740 On ch=1 n=70 v=0
43740 On ch=1 n=70 v=64
43800 On ch=1 n=70 v=0
43800 On ch=1 n=70 v=64
43860 On ch=1 n=70 v=0
43860 On ch=1 n=70 v=64
43920 On ch=1 n=70 v=0
43920 On ch=1 n=70 v=64
43980 On ch=1 n=70 v=0
43980 On ch=1 n=70 v=64
44040 On ch=1 n=70 v=0
44040 On ch=1 n=75 v=64
44100 On ch=1 n=75 v=0
44100 On ch=1 n=75 v=64
44160 On ch=1 n=75 v=0
44160 On ch=1 n=63 v=64
44220 On ch=1 n=63 v=0
44220 On ch=1 n=63 v=64
44280 On ch=1 n=63 v=0
44280 On ch=1 n=63 v=64
44340 On ch=1 n=63 v=0
44340 On ch=1 n=63 v=64
44400 On ch=1 n=63 v=0
44400 On ch=1 n=64 v=64
44460 On ch=1 n=64 v=0
44460 On ch=1 n=64 v=64
44520 On ch=1 n=64 v=0
44520 On ch=1 n=64 v=64
44580 On ch=1 n=64 v=0
44580 On ch=1 n=64 v=64
44640 On ch=1 n=64 v=0
44640 On ch=1 n=65 v=64
44700 On ch=1 n=65 v=0
44700 On ch=1 n=65 v=64
44760 On ch=1 n=65 v=0
44760 On ch=1 n=65 v=64
44820 On ch=1 n=65 v=0
44820 On ch=1 n=65 v=64
44880 On ch=1 n=65 v=0
44880 On ch=1 n=65 v=64
44940 On ch=1 n=65 v=0
44940 On ch=1 n=65 v=64
45000 On ch=1 n=65 v=0
45000 On ch=1 n=65 v=64
45060 On ch=1 n=65 v=0
45060 On ch=1 n=65 v=64
45120 On ch=1 n=65 v=0
45120 On ch=1 n=58 v=64
45180 On ch=1 n=58 v=0
45180 On ch=1 n=58 v=64
45240 On ch=1 n=58 v=0
45240 On ch=1 n=58 v=64
45300 On ch=1 n=58 v=0
45300 On ch=1 n=58 v=64
45360 On ch=1 n=58 v=0
45360 On ch=1 n=58 v=64
45420 On ch=1 n=58 v=0
45420 On ch=1 n=58 v=64
45480 On ch=1 n=58 v=0
45480 On ch=1 n=58 v=64
45540 On ch=1 n=58 v=0
45540 On ch=1 n=58 v=64
45600 On ch=1 n=58 v=0
45600 On ch=1 n=63 v=64
45660 On ch=1 n=63 v=0
45660 On ch=1 n=63 v=64
45720 On ch=1 n=63 v=0
45720 On ch=1 n=63 v=64
45780 On ch=1 n=63 v=0
45780 On ch=1 n=63 v=64
45840 On ch=1 n=63 v=0
45840 On ch=1 n=63 v=64
45900 On ch=1 n=63 v=0
45900 On ch=1 n=63 v=64
45960 On ch=1 n=63 v=0
45960 On ch=1 n=63 v=64
46020 On ch=1 n=63 v=0
46020 On ch=1 n=63 v=64
46080 On ch=1 n=63 v=0
46080 On ch=1 n=61 v=64
46140 On ch=1 n=61 v=0
46140 On ch=1 n=61 v=64
46200 On ch=1 n=61 v=0
46200 On ch=1 n=61 v=64
46260 On ch=1 n=61 v=0
46260 On ch=1 n=61 v=64
46320 On ch=1 n=61 v=0
46320 On ch=1 n=68 v=64
46380 On ch=1 n=68 v=0
46380 On ch=1 n=68 v=64
46440 On ch=1 n=68 v=0
46440 On ch=1 n=68 v=64
46500 On ch=1 n=68 v=0
46500 On ch=1 n=68 v=64
46560 On ch=1 n=68 v=0
46560 On ch=1 n=68 v=64
46620 On ch=1 n=68 v=0
46620 On ch=1 n=68 v=64
46680 On ch=1 n=68 v=0
46680 On ch=1 n=68 v=64
46740 On ch=1 n=68 v=0
46740 On ch=1 n=68 v=64
46800 On ch=1 n=68 v=0
46800 On ch=1 n=68 v=64
46860 On ch=1 n=68 v=0
46860 On ch=1 n=68 v=64
46920 On ch=1 n=68 v=0
46920 On ch=1 n=68 v=64
46980 On ch=1 n=68 v=0
46980 On ch=1 n=68 v=64
47040 On ch=1 n=68 v=0
47040 On ch=1 n=68 v=64
47160 On ch=1 n=68 v=0
47220 On ch=1 n=68 v=64
47280 On ch=1 n=68 v=0
47280 On ch=1 n=68 v=64
47400 On ch=1 n=68 v=0
47460 On ch=1 n=68 v=64
47520 On ch=1 n=68 v=0
47520 On ch=1 n=68 v=64
47580 On ch=1 n=68 v=0
47640 On ch=1 n=68 v=64
47700 On ch=1 n=68 v=0
47760 On ch=1 n=66 v=64
47820 On ch=1 n=66 v=0
47820 On ch=1 n=81 v=64
47880 On ch=1 n=81 v=0
47880 On ch=1 n=80 v=64
47940 On ch=1 n=80 v=0
47940 On ch=1 n=78 v=64
48000 On ch=1 n=78 v=0
48000 On ch=1 n=76 v=64
48120 On ch=1 n=76 v=0
48120 On ch=1 n=73 v=64
48360 On ch=1 n=73 v=0
48360 On ch=1 n=72 v=64
48480 On ch=1 n=72 v=0
48480 On ch=1 n=73 v=64
48600 On ch=1 n=73 v=0
48600 On ch=1 n=76 v=64
48690 On ch=1 n=76 v=0
48690 On ch=1 n=76 v=64
48720 On ch=1 n=76 v=0
48720 On ch=1 n=76 v=64
48840 On ch=1 n=76 v=0
48960 On ch=1 n=61 v=64
49080 On ch=1 n=61 v=0
49080 On ch=1 n=61 v=64
49170 On ch=1 n=61 v=0
49170 On ch=1 n=61 v=64
49200 On ch=1 n=61 v=0
49200 On ch=1 n=61 v=64
49320 On ch=1 n=61 v=0
49440 On ch=1 n=61 v=64
49680 On ch=1 n=61 v=0
49680 On ch=1 n=59 v=64
49920 On ch=1 n=59 v=0
49920 On ch=1 n=57 v=64
50760 On ch=1 n=57 v=0
50880 On ch=1 n=59 v=64
51000 On ch=1 n=59 v=0
51000 On ch=1 n=63 v=64
51120 On ch=1 n=63 v=0
51120 On ch=1 n=64 v=64
51240 On ch=1 n=64 v=0
51300 On ch=1 n=80 v=64
51360 On ch=1 n=80 v=0
51360 On ch=1 n=76 v=64
51420 On ch=1 n=76 v=0
51420 On ch=1 n=75 v=64
51480 On ch=1 n=75 v=0
51480 On ch=1 n=73 v=64
51540 On ch=1 n=73 v=0
51540 On ch=1 n=71 v=64
51600 On ch=1 n=71 v=0
51600 On ch=1 n=69 v=64
51660 On ch=1 n=69 v=0
51660 On ch=1 n=68 v=64
51720 On ch=1 n=68 v=0
51720 On ch=1 n=66 v=64
51780 On ch=1 n=66 v=0
51780 On ch=1 n=78 v=64
51840 On ch=1 n=78 v=0
51840 On ch=1 n=75 v=64
51900 On ch=1 n=75 v=0
51900 On ch=1 n=73 v=64
51960 On ch=1 n=73 v=0
51960 On ch=1 n=71 v=64
52020 On ch=1 n=71 v=0
52020 On ch=1 n=69 v=64
52080 On ch=1 n=69 v=0
52080 On ch=1 n=68 v=64
52140 On ch=1 n=68 v=0
52140 On ch=1 n=66 v=64
52200 On ch=1 n=66 v=0
52200 On ch=1 n=64 v=64
52260 On ch=1 n=64 v=0
52260 On ch=1 n=76 v=64
52320 On ch=1 n=76 v=0
52320 On ch=1 n=73 v=64
52380 On ch=1 n=73 v=0
52380 On ch=1 n=71 v=64
52440 On ch=1 n=71 v=0
52440 On ch=1 n=69 v=64
52500 On ch=1 n=69 v=0
52500 On ch=1 n=68 v=64
52560 On ch=1 n=68 v=0
52560 On ch=1 n=66 v=64
52620 On ch=1 n=66 v=0
52620 On ch=1 n=64 v=64
52680 On ch=1 n=64 v=0
52680 On ch=1 n=63 v=64
52740 On ch=1 n=63 v=0
52740 On ch=1 n=75 v=64
52800 On ch=1 n=75 v=0
52800 On ch=1 n=71 v=64
52860 On ch=1 n=71 v=0
52860 On ch=1 n=69 v=64
52920 On ch=1 n=69 v=0
52920 On ch=1 n=68 v=64
52980 On ch=1 n=68 v=0
52980 On ch=1 n=73 v=64
53040 On ch=1 n=73 v=0
53040 On ch=1 n=69 v=64
53100 On ch=1 n=69 v=0
53100 On ch=1 n=68 v=64
53160 On ch=1 n=68 v=0
53160 On ch=1 n=66 v=64
53220 On ch=1 n=66 v=0
53220 On ch=1 n=75 v=64
53280 On ch=1 n=75 v=0
53280 On ch=1 n=76 v=64
53760 On ch=1 n=76 v=0
53760 On ch=1 n=75 v=64
54240 On ch=1 n=75 v=0
54240 On ch=1 n=73 v=64
54720 On ch=1 n=73 v=0
54720 On ch=1 n=71 v=64
55200 On ch=1 n=71 v=0
55200 On ch=1 n=69 v=64
55680 On ch=1 n=69 v=0
55680 On ch=1 n=67 v=64
56040 On ch=1 n=67 v=0
56040 On ch=1 n=72 v=64
56160 On ch=1 n=72 v=0
56160 On ch=1 n=72 v=64
56640 On ch=1 n=72 v=0
56640 On ch=1 n=71 v=64
56760 On ch=1 n=71 v=0
56760 On ch=1 n=78 v=64
56850 On ch=1 n=78 v=0
56850 On ch=1 n=78 v=64
56880 On ch=1 n=78 v=0
56880 On ch=1 n=78 v=64
57000 On ch=1 n=78 v=0
57120 On ch=1 n=59 v=64
57240 On ch=1 n=59 v=0
57240 On ch=1 n=63 v=64
57360 On ch=1 n=63 v=0
57360 On ch=1 n=64 v=64
57480 On ch=1 n=64 v=0
57600 On ch=1 n=64 v=64
57720 On ch=1 n=64 v=0
57720 On ch=1 n=61 v=64
57840 On ch=1 n=61 v=0
57840 On ch=1 n=59 v=64
57960 On ch=1 n=59 v=0
58080 On ch=1 n=59 v=64
58200 On ch=1 n=59 v=0
58200 On ch=1 n=59 v=64
58320 On ch=1 n=59 v=0
58320 On ch=1 n=64 v=64
58440 On ch=1 n=64 v=0
58440 On ch=1 n=64 v=64
58560 On ch=1 n=64 v=0
58560 On ch=1 n=64 v=64
58680 On ch=1 n=64 v=0
58680 On ch=1 n=64 v=64
58800 On ch=1 n=64 v=0
58800 On ch=1 n=64 v=64
59640 On ch=1 n=64 v=0
59640 On ch=1 n=63 v=64
59760 On ch=1 n=63 v=0
59760 On ch=1 n=64 v=64
59880 On ch=1 n=64 v=0
60000 On ch=1 n=64 v=64
60600 On ch=1 n=64 v=0
60600 On ch=1 n=62 v=64
60840 On ch=1 n=62 v=0
60840 On ch=1 n=61 v=64
60960 On ch=1 n=61 v=0
60960 On ch=1 n=64 v=64
61080 On ch=1 n=64 v=0
61500 On ch=1 n=57 v=64
61560 On ch=1 n=57 v=0
61560 On ch=1 n=57 v=64
61620 On ch=1 n=57 v=0
61740 On ch=1 n=63 v=64
61800 On ch=1 n=63 v=0
61800 On ch=1 n=63 v=64
61860 On ch=1 n=63 v=0
61980 On ch=1 n=63 v=64
62040 On ch=1 n=63 v=0
62100 On ch=1 n=63 v=64
62160 On ch=1 n=63 v=0
62220 On ch=1 n=63 v=64
62280 On ch=1 n=63 v=0
62340 On ch=1 n=63 v=64
62400 On ch=1 n=63 v=0
62400 On ch=1 n=63 v=64
62520 On ch=1 n=63 v=0
62940 On ch=1 n=73 v=64
63000 On ch=1 n=73 v=0
63000 On ch=1 n=71 v=64
63060 On ch=1 n=71 v=0
63060 On ch=1 n=69 v=64
63120 On ch=1 n=69 v=0
63120 On ch=1 n=68 v=64
63180 On ch=1 n=68 v=0
63180 On ch=1 n=66 v=64
63240 On ch=1 n=66 v=0
63240 On ch=1 n=67 v=64
63420 On ch=1 n=67 v=0
63420 On ch=1 n=66 v=64
63480 On ch=1 n=66 v=0
63480 On ch=1 n=69 v=64
63540 On ch=1 n=69 v=0
63540 On ch=1 n=67 v=64
63660 On ch=1 n=67 v=0
63660 On ch=1 n=66 v=64
63720 On ch=1 n=66 v=0
63720 On ch=1 n=69 v=64
63780 On ch=1 n=69 v=0
63780 On ch=1 n=67 v=64
63900 On ch=1 n=67 v=0
63900 On ch=1 n=66 v=64
63960 On ch=1 n=66 v=0
63960 On ch=1 n=68 v=64
64020 On ch=1 n=68 v=0
64020 On ch=1 n=69 v=64
64080 On ch=1 n=69 v=0
64080 On ch=1 n=71 v=64
64140 On ch=1 n=71 v=0
64140 On ch=1 n=64 v=64
64200 On ch=1 n=64 v=0
64200 On ch=1 n=66 v=64
64260 On ch=1 n=66 v=0
64260 On ch=1 n=68 v=64
64320 On ch=1 n=68 v=0
64320 On ch=1 n=69 v=64
64380 On ch=1 n=69 v=0
64380 On ch=1 n=66 v=64
64440 On ch=1 n=66 v=0
64440 On ch=1 n=68 v=64
64500 On ch=1 n=68 v=0
64500 On ch=1 n=63 v=64
64560 On ch=1 n=63 v=0
64560 On ch=1 n=64 v=64
64620 On ch=1 n=64 v=0
64620 On ch=1 n=63 v=64
64680 On ch=1 n=63 v=0
64680 On ch=1 n=64 v=64
64740 On ch=1 n=64 v=0
64740 On ch=1 n=66 v=64
64800 On ch=1 n=66 v=0
64800 On ch=1 n=68 v=64
64920 On ch=1 n=68 v=0
64980 On ch=1 n=66 v=64
65040 On ch=1 n=66 v=0
65040 On ch=1 n=64 v=64
65160 On ch=1 n=64 v=0
65220 On ch=1 n=66 v=64
65280 On ch=1 n=66 v=0
65280 On ch=1 n=64 v=64
65340 On ch=1 n=64 v=0
65400 On ch=1 n=71 v=64
65460 On ch=1 n=71 v=0
65520 On ch=1 n=69 v=64
65580 On ch=1 n=69 v=0
65640 On ch=1 n=64 v=64
65700 On ch=1 n=64 v=0
65700 On ch=1 n=59 v=64
65760 On ch=1 n=59 v=0
65760 On ch=1 n=71 v=64
66000 On ch=1 n=71 v=0
66000 On ch=1 n=64 v=64
66120 On ch=1 n=64 v=0
66120 On ch=1 n=83 v=64
66180 On ch=1 n=83 v=0
66180 On ch=1 n=83 v=64
66240 On ch=1 n=83 v=0
66240 On ch=1 n=83 v=64
66600 On ch=1 n=83 v=0
66720 On ch=1 n=81 v=64
66810 On ch=1 n=81 v=0
66810 On ch=1 n=80 v=64
66840 On ch=1 n=80 v=0
66840 On ch=1 n=81 v=64
66870 On ch=1 n=81 v=0
66870 On ch=1 n=80 v=64
66900 On ch=1 n=80 v=0
66900 On ch=1 n=81 v=64
66930 On ch=1 n=81 v=0
66930 On ch=1 n=80 v=64
66960 On ch=1 n=80 v=0
66960 On ch=1 n=81 v=64
67020 On ch=1 n=81 v=0
67020 On ch=1 n=81 v=64
67080 On ch=1 n=81 v=0
67080 On ch=1 n=80 v=64
67140 On ch=1 n=80 v=0
67140 On ch=1 n=78 v=64
67200 On ch=1 n=78 v=0
67200 On ch=1 n=76 v=64
67230 On ch=1 n=76 v=0
67230 On ch=1 n=80 v=64
67320 On ch=1 n=80 v=0
67320 On ch=1 n=80 v=64
67380 On ch=1 n=80 v=0
67380 On ch=1 n=76 v=64
67440 On ch=1 n=76 v=0
67440 On ch=1 n=76 v=64
67500 On ch=1 n=76 v=0
67500 On ch=1 n=76 v=64
67560 On ch=1 n=76 v=0
67560 On ch=1 n=75 v=64
67620 On ch=1 n=75 v=0
67620 On ch=1 n=75 v=64
67680 On ch=1 n=75 v=0
67680 On ch=1 n=76 v=64
67800 On ch=1 n=76 v=0
67860 On ch=1 n=75 v=64
67920 On ch=1 n=75 v=0
67920 On ch=1 n=76 v=64
68040 On ch=1 n=76 v=0
68100 On ch=1 n=75 v=64
68160 On ch=1 n=75 v=0
68160 On ch=1 n=76 v=64
68220 On ch=1 n=76 v=0
68280 On ch=1 n=64 v=64
68340 On ch=1 n=64 v=0
68400 On ch=1 n=64 v=64
68460 On ch=1 n=64 v=0
68520 On ch=1 n=64 v=64
68580 On ch=1 n=64 v=0
68580 On ch=1 n=71 v=64
68640 On ch=1 n=71 v=0
68640 On ch=1 n=71 v=64
68880 On ch=1 n=71 v=0
68880 On ch=1 n=64 v=64
69000 On ch=1 n=64 v=0
69000 On ch=1 n=83 v=64
69060 On ch=1 n=83 v=0
69060 On ch=1 n=83 v=64
69120 On ch=1 n=83 v=0
69120 On ch=1 n=83 v=64
69480 On ch=1 n=83 v=0
69600 On ch=1 n=81 v=64
69690 On ch=1 n=81 v=0
69690 On ch=1 n=80 v=64
69720 On ch=1 n=80 v=0
69720 On ch=1 n=81 v=64
69750 On ch=1 n=81 v=0
69750 On ch=1 n=80 v=64
69780 On ch=1 n=80 v=0
69780 On ch=1 n=81 v=64
69810 On ch=1 n=81 v=0
69810 On ch=1 n=80 v=64
69840 On ch=1 n=80 v=0
69840 On ch=1 n=81 v=64
69900 On ch=1 n=81 v=0
69900 On ch=1 n=81 v=64
69960 On ch=1 n=81 v=0
69960 On ch=1 n=80 v=64
70020 On ch=1 n=80 v=0
70020 On ch=1 n=78 v=64
70080 On ch=1 n=78 v=0
70080 On ch=1 n=76 v=64
70320 On ch=1 n=76 v=0
70320 On ch=1 n=75 v=64
70560 On ch=1 n=75 v=0
70560 On ch=1 n=71 v=64
70620 On ch=1 n=71 v=0
70620 On ch=1 n=73 v=64
70680 On ch=1 n=73 v=0
70680 On ch=1 n=74 v=64
70740 On ch=1 n=74 v=0
70740 On ch=1 n=71 v=64
70800 On ch=1 n=71 v=0
70800 On ch=1 n=70 v=64
71040 On ch=1 n=70 v=0
71040 On ch=1 n=69 v=64
71100 On ch=1 n=69 v=0
71100 On ch=1 n=71 v=64
71160 On ch=1 n=71 v=0
71160 On ch=1 n=73 v=64
71220 On ch=1 n=73 v=0
71220 On ch=1 n=69 v=64
71280 On ch=1 n=69 v=0
71280 On ch=1 n=68 v=64
71520 On ch=1 n=68 v=0
71520 On ch=1 n=69 v=64
71580 On ch=1 n=69 v=0
71580 On ch=1 n=73 v=64
71640 On ch=1 n=73 v=0
71640 On ch=1 n=73 v=64
71760 On ch=1 n=73 v=0
72000 On ch=1 n=76 v=64
72030 On ch=1 n=76 v=0
72030 On ch=1 n=80 v=64
72120 On ch=1 n=80 v=0
72120 On ch=1 n=80 v=64
72180 On ch=1 n=80 v=0
72180 On ch=1 n=76 v=64
72240 On ch=1 n=76 v=0
72240 On ch=1 n=76 v=64
72300 On ch=1 n=76 v=0
72300 On ch=1 n=76 v=64
72360 On ch=1 n=76 v=0
72360 On ch=1 n=75 v=64
72420 On ch=1 n=75 v=0
72420 On ch=1 n=69 v=64
72480 On ch=1 n=69 v=0
72480 On ch=1 n=68 v=64
72540 On ch=1 n=68 v=0
72540 On ch=1 n=69 v=64
72600 On ch=1 n=69 v=0
72600 On ch=1 n=71 v=64
72660 On ch=1 n=71 v=0
72660 On ch=1 n=74 v=64
72720 On ch=1 n=74 v=0
72720 On ch=1 n=73 v=64
72900 On ch=1 n=73 v=0
72900 On ch=1 n=57 v=64
72960 On ch=1 n=57 v=0
72960 On ch=1 n=56 v=64
73020 On ch=1 n=56 v=0
73020 On ch=1 n=57 v=64
73080 On ch=1 n=57 v=0
73080 On ch=1 n=59 v=64
73140 On ch=1 n=59 v=0
73140 On ch=1 n=62 v=64
73200 On ch=1 n=62 v=0
73200 On ch=1 n=61 v=64
73380 On ch=1 n=61 v=0
73380 On ch=1 n=57 v=64
73440 On ch=1 n=57 v=0
73440 On ch=1 n=57 v=64
73680 On ch=1 n=57 v=0
73680 On ch=1 n=56 v=64
73800 On ch=1 n=56 v=0
73800 On ch=1 n=60 v=0
73920 On ch=1 n=60 v=0
73920 On ch=1 n=60 v=0
74040 On ch=1 n=60 v=0
74040 Meta TrkEnd
TrkEnd
MTrk
480 On ch=2 n=52 v=64
600 On ch=2 n=52 v=0
600 On ch=2 n=57 v=64
720 On ch=2 n=57 v=0
720 On ch=2 n=56 v=64
840 On ch=2 n=56 v=0
960 On ch=2 n=52 v=64
1080 On ch=2 n=52 v=0
1080 On ch=2 n=57 v=64
1199 On ch=2 n=54 v=64
1200 On ch=2 n=57 v=0
1319 On ch=2 n=54 v=0
1439 On ch=2 n=54 v=64
1559 On ch=2 n=54 v=0
1559 On ch=2 n=56 v=64
1679 On ch=2 n=56 v=0
1679 On ch=2 n=57 v=64
1799 On ch=2 n=57 v=0
1799 On ch=2 n=61 v=64
1919 On ch=2 n=61 v=0
1919 On ch=2 n=56 v=64
2039 On ch=2 n=56 v=0
2039 On ch=2 n=56 v=64
2159 On ch=2 n=56 v=0
2159 On ch=2 n=59 v=64
2399 On ch=2 n=59 v=0
2399 On ch=2 n=61 v=64
2519 On ch=2 n=61 v=0
2519 On ch=2 n=59 v=64
2639 On ch=2 n=59 v=0
2639 On ch=2 n=57 v=64
2819 On ch=2 n=57 v=0
2819 On ch=2 n=59 v=64
2879 On ch=2 n=59 v=0
2879 On ch=2 n=61 v=64
2999 On ch=2 n=61 v=0
2999 On ch=2 n=59 v=64
3119 On ch=2 n=59 v=0
3119 On ch=2 n=52 v=64
3239 On ch=2 n=52 v=0
3359 On ch=2 n=52 v=64
3480 On ch=2 n=52 v=0
3480 On ch=2 n=57 v=64
3600 On ch=2 n=57 v=0
3600 On ch=2 n=56 v=64
3720 On ch=2 n=56 v=0
4080 On ch=2 n=63 v=64
4320 On ch=2 n=63 v=0
4320 On ch=2 n=60 v=64
4500 On ch=2 n=60 v=0
4500 On ch=2 n=56 v=64
4560 On ch=2 n=56 v=0
4560 On ch=2 n=56 v=64
4800 On ch=2 n=56 v=0
5040 On ch=2 n=61 v=64
5220 On ch=2 n=61 v=0
5220 On ch=2 n=54 v=64
5280 On ch=2 n=54 v=0
5280 On ch=2 n=58 v=64
5340 On ch=2 n=58 v=0
5340 On ch=2 n=61 v=64
5400 On ch=2 n=61 v=0
5400 On ch=2 n=64 v=64
5460 On ch=2 n=64 v=0
5460 On ch=2 n=61 v=64
5520 On ch=2 n=61 v=0
5520 On ch=2 n=61 v=64
5640 On ch=2 n=61 v=0
5640 On ch=2 n=63 v=64
5700 On ch=2 n=63 v=0
5700 On ch=2 n=54 v=64
5760 On ch=2 n=54 v=0
5760 On ch=2 n=59 v=64
5820 On ch=2 n=59 v=0
5820 On ch=2 n=63 v=64
5880 On ch=2 n=63 v=0
5880 On ch=2 n=66 v=64
5940 On ch=2 n=66 v=0
5940 On ch=2 n=63 v=64
6000 On ch=2 n=63 v=0
6000 On ch=2 n=63 v=64
6120 On ch=2 n=63 v=0
6120 On ch=2 n=64 v=64
6180 On ch=2 n=64 v=0
6180 On ch=2 n=54 v=64
6240 On ch=2 n=54 v=0
6240 On ch=2 n=58 v=64
6300 On ch=2 n=58 v=0
6300 On ch=2 n=61 v=64
6360 On ch=2 n=61 v=0
6360 On ch=2 n=64 v=64
6420 On ch=2 n=64 v=0
6420 On ch=2 n=52 v=64
6480 On ch=2 n=52 v=0
6480 On ch=2 n=51 v=64
6540 On ch=2 n=51 v=0
6540 On ch=2 n=66 v=64
6660 On ch=2 n=66 v=0
6660 On ch=2 n=66 v=64
6780 On ch=2 n=66 v=0
6780 On ch=2 n=64 v=64
6900 On ch=2 n=64 v=0
6900 On ch=2 n=63 v=64
7020 On ch=2 n=63 v=0
7020 On ch=2 n=59 v=64
7140 On ch=2 n=59 v=0
7140 On ch=2 n=59 v=64
7200 On ch=2 n=59 v=0
7200 On ch=2 n=63 v=64
7260 On ch=2 n=63 v=0
7260 On ch=2 n=63 v=64
7320 On ch=2 n=63 v=0
7320 On ch=2 n=63 v=64
7380 On ch=2 n=63 v=0
7380 On ch=2 n=63 v=64
7439 On ch=2 n=63 v=0
7439 On ch=2 n=63 v=64
7499 On ch=2 n=63 v=0
7499 On ch=2 n=63 v=64
7559 On ch=2 n=63 v=0
7559 On ch=2 n=63 v=64
7619 On ch=2 n=63 v=0
7619 On ch=2 n=63 v=64
7679 On ch=2 n=63 v=0
7679 On ch=2 n=56 v=64
7739 On ch=2 n=56 v=0
7739 On ch=2 n=56 v=64
7799 On ch=2 n=56 v=0
7799 On ch=2 n=56 v=64
7859 On ch=2 n=56 v=0
7859 On ch=2 n=56 v=64
7919 On ch=2 n=56 v=0
7919 On ch=2 n=56 v=64
7979 On ch=2 n=56 v=0
7979 On ch=2 n=56 v=64
8039 On ch=2 n=56 v=0
8039 On ch=2 n=56 v=64
8099 On ch=2 n=56 v=0
8099 On ch=2 n=56 v=64
8159 On ch=2 n=56 v=0
8159 On ch=2 n=56 v=64
8219 On ch=2 n=56 v=0
8219 On ch=2 n=56 v=64
8279 On ch=2 n=56 v=0
8279 On ch=2 n=56 v=64
8339 On ch=2 n=56 v=0
8339 On ch=2 n=56 v=64
8399 On ch=2 n=56 v=0
8399 On ch=2 n=56 v=64
8459 On ch=2 n=56 v=0
8459 On ch=2 n=56 v=64
8519 On ch=2 n=56 v=0
8519 On ch=2 n=56 v=64
8579 On ch=2 n=56 v=0
8579 On ch=2 n=56 v=64
8639 On ch=2 n=56 v=0
8639 On ch=2 n=54 v=64
8699 On ch=2 n=54 v=0
8699 On ch=2 n=54 v=64
8759 On ch=2 n=54 v=0
8759 On ch=2 n=54 v=64
8819 On ch=2 n=54 v=0
8939 On ch=2 n=66 v=64
8999 On ch=2 n=66 v=0
8999 On ch=2 n=66 v=64
9059 On ch=2 n=66 v=0
9179 On ch=2 n=61 v=64
9239 On ch=2 n=61 v=0
9299 On ch=2 n=61 v=64
9359 On ch=2 n=61 v=0
9419 On ch=2 n=61 v=64
9479 On ch=2 n=61 v=0
9539 On ch=2 n=61 v=64
9599 On ch=2 n=61 v=0
9599 On ch=2 n=61 v=64
9719 On ch=2 n=61 v=0
10019 On ch=2 n=68 v=64
10079 On ch=2 n=68 v=0
10079 On ch=2 n=66 v=64
10139 On ch=2 n=66 v=0
10139 On ch=2 n=64 v=64
10199 On ch=2 n=64 v=0
10199 On ch=2 n=63 v=64
10259 On ch=2 n=63 v=0
10259 On ch=2 n=61 v=64
10319 On ch=2 n=61 v=0
10319 On ch=2 n=59 v=64
10379 On ch=2 n=59 v=0
10379 On ch=2 n=58 v=64
10439 On ch=2 n=58 v=0
10439 On ch=2 n=59 v=64
10619 On ch=2 n=59 v=0
10619 On ch=2 n=58 v=64
10679 On ch=2 n=58 v=0
10679 On ch=2 n=61 v=64
10739 On ch=2 n=61 v=0
10739 On ch=2 n=59 v=64
10859 On ch=2 n=59 v=0
10859 On ch=2 n=58 v=64
10919 On ch=2 n=58 v=0
10919 On ch=2 n=61 v=64
10979 On ch=2 n=61 v=0
10979 On ch=2 n=59 v=64
11099 On ch=2 n=59 v=0
11099 On ch=2 n=58 v=64
11159 On ch=2 n=58 v=0
11159 On ch=2 n=59 v=64
11219 On ch=2 n=59 v=0
11219 On ch=2 n=61 v=64
11279 On ch=2 n=61 v=0
11279 On ch=2 n=54 v=64
11759 On ch=2 n=54 v=0
11759 On ch=2 n=54 v=64
11939 On ch=2 n=54 v=0
11939 On ch=2 n=58 v=64
11999 On ch=2 n=58 v=0
11999 On ch=2 n=54 v=64
12119 On ch=2 n=54 v=0
12179 On ch=2 n=58 v=64
12239 On ch=2 n=58 v=0
12239 On ch=2 n=59 v=64
12359 On ch=2 n=59 v=0
12419 On ch=2 n=58 v=64
12479 On ch=2 n=58 v=0
12479 On ch=2 n=59 v=64
12539 On ch=2 n=59 v=0
12599 On ch=2 n=59 v=64
12659 On ch=2 n=59 v=0
12719 On ch=2 n=64 v=64
12779 On ch=2 n=64 v=0
12839 On ch=2 n=64 v=64
12899 On ch=2 n=64 v=0
12899 On ch=2 n=61 v=64
12959 On ch=2 n=61 v=0
12959 On ch=2 n=63 v=64
13019 On ch=2 n=63 v=0
13019 On ch=2 n=58 v=64
13079 On ch=2 n=58 v=0
13079 On ch=2 n=59 v=64
13139 On ch=2 n=59 v=0
13139 On ch=2 n=61 v=64
13199 On ch=2 n=61 v=0
13199 On ch=2 n=63 v=64
13259 On ch=2 n=63 v=0
13259 On ch=2 n=71 v=64
13319 On ch=2 n=71 v=0
13319 On ch=2 n=71 v=64
13379 On ch=2 n=71 v=0
13379 On ch=2 n=71 v=64
13439 On ch=2 n=71 v=0
13439 On ch=2 n=71 v=64
13799 On ch=2 n=71 v=0
14399 On ch=2 n=66 v=64
14459 On ch=2 n=66 v=0
14459 On ch=2 n=66 v=64
14519 On ch=2 n=66 v=0
14519 On ch=2 n=66 v=64
14579 On ch=2 n=66 v=0
14579 On ch=2 n=66 v=64
14639 On ch=2 n=66 v=0
14639 On ch=2 n=66 v=64
14699 On ch=2 n=66 v=0
14699 On ch=2 n=66 v=64
14759 On ch=2 n=66 v=0
14759 On ch=2 n=64 v=64
14819 On ch=2 n=64 v=0
14819 On ch=2 n=64 v=64
14879 On ch=2 n=64 v=0
14879 On ch=2 n=63 v=64
14999 On ch=2 n=63 v=0
15059 On ch=2 n=58 v=64
15119 On ch=2 n=58 v=0
15119 On ch=2 n=59 v=64
15239 On ch=2 n=59 v=0
15299 On ch=2 n=58 v=64
15359 On ch=2 n=58 v=0
15359 On ch=2 n=59 v=64
15419 On ch=2 n=59 v=0
15479 On ch=2 n=59 v=64
15539 On ch=2 n=59 v=0
15599 On ch=2 n=59 v=64
15659 On ch=2 n=59 v=0
15719 On ch=2 n=64 v=64
15779 On ch=2 n=64 v=0
15779 On ch=2 n=61 v=64
15839 On ch=2 n=61 v=0
15839 On ch=2 n=63 v=64
15899 On ch=2 n=63 v=0
15899 On ch=2 n=64 v=64
15959 On ch=2 n=64 v=0
15959 On ch=2 n=63 v=64
16019 On ch=2 n=63 v=0
16019 On ch=2 n=61 v=64
16079 On ch=2 n=61 v=0
16079 On ch=2 n=59 v=64
16139 On ch=2 n=59 v=0
16139 On ch=2 n=71 v=64
16199 On ch=2 n=71 v=0
16199 On ch=2 n=72 v=64
16259 On ch=2 n=72 v=0
16259 On ch=2 n=72 v=64
16319 On ch=2 n=72 v=0
16319 On ch=2 n=72 v=64
16679 On ch=2 n=72 v=0
17279 On ch=2 n=66 v=64
17519 On ch=2 n=66 v=0
17519 On ch=2 n=64 v=64
17759 On ch=2 n=64 v=0
17759 On ch=2 n=63 v=64
17879 On ch=2 n=63 v=0
17879 On ch=2 n=68 v=64
18119 On ch=2 n=68 v=0
18119 On ch=2 n=61 v=64
18359 On ch=2 n=61 v=0
18359 On ch=2 n=66 v=64
18599 On ch=2 n=66 v=0
18599 On ch=2 n=66 v=64
18719 On ch=2 n=66 v=0
18719 On ch=2 n=64 v=64
18779 On ch=2 n=64 v=0
18779 On ch=2 n=64 v=64
18839 On ch=2 n=64 v=0
18839 On ch=2 n=64 v=64
18959 On ch=2 n=64 v=0
19199 On ch=2 n=66 v=64
19259 On ch=2 n=66 v=0
19259 On ch=2 n=66 v=64
19319 On ch=2 n=66 v=0
19319 On ch=2 n=66 v=64
19379 On ch=2 n=66 v=0
19379 On ch=2 n=66 v=64
19439 On ch=2 n=66 v=0
19439 On ch=2 n=66 v=64
19499 On ch=2 n=66 v=0
19499 On ch=2 n=66 v=64
19559 On ch=2 n=66 v=0
19559 On ch=2 n=66 v=64
19619 On ch=2 n=66 v=0
19619 On ch=2 n=58 v=64
19679 On ch=2 n=58 v=0
19679 On ch=2 n=59 v=64
19739 On ch=2 n=59 v=0
19739 On ch=2 n=61 v=64
19799 On ch=2 n=61 v=0
19799 On ch=2 n=63 v=64
19859 On ch=2 n=63 v=0
19859 On ch=2 n=66 v=64
19919 On ch=2 n=66 v=0
19919 On ch=2 n=64 v=64
20099 On ch=2 n=64 v=0
20099 On ch=2 n=61 v=64
20159 On ch=2 n=61 v=0
20159 On ch=2 n=59 v=64
20219 On ch=2 n=59 v=0
20219 On ch=2 n=61 v=64
20279 On ch=2 n=61 v=0
20279 On ch=2 n=63 v=64
20339 On ch=2 n=63 v=0
20339 On ch=2 n=66 v=64
20399 On ch=2 n=66 v=0
20399 On ch=2 n=64 v=64
20579 On ch=2 n=64 v=0
20579 On ch=2 n=61 v=64
20639 On ch=2 n=61 v=0
20639 On ch=2 n=61 v=64
20879 On ch=2 n=61 v=0
20879 On ch=2 n=59 v=64
20999 On ch=2 n=59 v=0
21119 On ch=2 n=52 v=64
21239 On ch=2 n=52 v=0
21239 On ch=2 n=57 v=64
21359 On ch=2 n=57 v=0
21359 On ch=2 n=56 v=64
21479 On ch=2 n=56 v=0
21599 On ch=2 n=52 v=64
21719 On ch=2 n=52 v=0
21719 On ch=2 n=57 v=64
21839 On ch=2 n=57 v=0
21839 On ch=2 n=54 v=64
21959 On ch=2 n=54 v=0
22079 On ch=2 n=54 v=64
22199 On ch=2 n=54 v=0
22199 On ch=2 n=56 v=64
22319 On ch=2 n=56 v=0
22319 On ch=2 n=57 v=64
22439 On ch=2 n=57 v=0
22439 On ch=2 n=61 v=64
22559 On ch=2 n=61 v=0
22559 On ch=2 n=56 v=64
22679 On ch=2 n=56 v=0
22679 On ch=2 n=56 v=64
22799 On ch=2 n=56 v=0
22799 On ch=2 n=59 v=64
23039 On ch=2 n=59 v=0
23039 On ch=2 n=61 v=64
23159 On ch=2 n=61 v=0
23159 On ch=2 n=59 v=64
23279 On ch=2 n=59 v=0
23279 On ch=2 n=57 v=64
23459 On ch=2 n=57 v=0
23459 On ch=2 n=59 v=64
23519 On ch=2 n=59 v=0
23519 On ch=2 n=61 v=64
23639 On ch=2 n=61 v=0
23639 On ch=2 n=59 v=64
23759 On ch=2 n=59 v=0
23759 On ch=2 n=52 v=64
23879 On ch=2 n=52 v=0
23999 On ch=2 n=52 v=64
24119 On ch=2 n=52 v=0
24119 On ch=2 n=57 v=64
24239 On ch=2 n=57 v=0
24239 On ch=2 n=56 v=64
24359 On ch=2 n=56 v=0
24719 On ch=2 n=63 v=64
24959 On ch=2 n=63 v=0
24959 On ch=2 n=60 v=64
25139 On ch=2 n=60 v=0
25139 On ch=2 n=56 v=64
25199 On ch=2 n=56 v=0
25199 On ch=2 n=56 v=64
25439 On ch=2 n=56 v=0
25679 On ch=2 n=61 v=64
25859 On ch=2 n=61 v=0
25859 On ch=2 n=54 v=64
25919 On ch=2 n=54 v=0
25919 On ch=2 n=58 v=64
25979 On ch=2 n=58 v=0
25979 On ch=2 n=61 v=64
26039 On ch=2 n=61 v=0
26039 On ch=2 n=64 v=64
26099 On ch=2 n=64 v=0
26099 On ch=2 n=61 v=64
26159 On ch=2 n=61 v=0
26159 On ch=2 n=61 v=64
26279 On ch=2 n=61 v=0
26279 On ch=2 n=63 v=64
26339 On ch=2 n=63 v=0
26339 On ch=2 n=54 v=64
26399 On ch=2 n=54 v=0
26399 On ch=2 n=59 v=64
26459 On ch=2 n=59 v=0
26459 On ch=2 n=63 v=64
26519 On ch=2 n=63 v=0
26519 On ch=2 n=66 v=64
26579 On ch=2 n=66 v=0
26579 On ch=2 n=63 v=64
26639 On ch=2 n=63 v=0
26639 On ch=2 n=63 v=64
26759 On ch=2 n=63 v=0
26759 On ch=2 n=64 v=64
26819 On ch=2 n=64 v=0
26819 On ch=2 n=54 v=64
26879 On ch=2 n=54 v=0
26879 On ch=2 n=58 v=64
26939 On ch=2 n=58 v=0
26939 On ch=2 n=61 v=64
26999 On ch=2 n=61 v=0
26999 On ch=2 n=64 v=64
27059 On ch=2 n=64 v=0
27059 On ch=2 n=52 v=64
27119 On ch=2 n=52 v=0
27119 On ch=2 n=51 v=64
27179 On ch=2 n=51 v=0
27179 On ch=2 n=66 v=64
27299 On ch=2 n=66 v=0
27299 On ch=2 n=66 v=64
27419 On ch=2 n=66 v=0
27419 On ch=2 n=64 v=64
27539 On ch=2 n=64 v=0
27539 On ch=2 n=63 v=64
27659 On ch=2 n=63 v=0
27659 On ch=2 n=59 v=64
27779 On ch=2 n=59 v=0
27779 On ch=2 n=59 v=64
27839 On ch=2 n=59 v=0
27839 On ch=2 n=63 v=64
27899 On ch=2 n=63 v=0
27899 On ch=2 n=63 v=64
27959 On ch=2 n=63 v=0
27959 On ch=2 n=63 v=64
28019 On ch=2 n=63 v=0
28019 On ch=2 n=63 v=64
28079 On ch=2 n=63 v=0
28079 On ch=2 n=63 v=64
28139 On ch=2 n=63 v=0
28139 On ch=2 n=63 v=64
28199 On ch=2 n=63 v=0
28199 On ch=2 n=63 v=64
28259 On ch=2 n=63 v=0
28259 On ch=2 n=63 v=64
28319 On ch=2 n=63 v=0
28319 On ch=2 n=56 v=64
28379 On ch=2 n=56 v=0
28379 On ch=2 n=56 v=64
28439 On ch=2 n=56 v=0
28439 On ch=2 n=56 v=64
28499 On ch=2 n=56 v=0
28499 On ch=2 n=56 v=64
28559 On ch=2 n=56 v=0
28559 On ch=2 n=56 v=64
28619 On ch=2 n=56 v=0
28619 On ch=2 n=56 v=64
28679 On ch=2 n=56 v=0
28679 On ch=2 n=56 v=64
28739 On ch=2 n=56 v=0
28739 On ch=2 n=56 v=64
28799 On ch=2 n=56 v=0
28799 On ch=2 n=56 v=64
28859 On ch=2 n=56 v=0
28859 On ch=2 n=56 v=64
28919 On ch=2 n=56 v=0
28919 On ch=2 n=56 v=64
28979 On ch=2 n=56 v=0
28979 On ch=2 n=56 v=64
29039 On ch=2 n=56 v=0
29039 On ch=2 n=56 v=64
29099 On ch=2 n=56 v=0
29099 On ch=2 n=56 v=64
29159 On ch=2 n=56 v=64
29160 On ch=2 n=56 v=0
29220 On ch=2 n=56 v=0
29220 On ch=2 n=56 v=64
29280 On ch=2 n=56 v=0
29280 On ch=2 n=54 v=64
29340 On ch=2 n=54 v=0
29340 On ch=2 n=54 v=64
29400 On ch=2 n=54 v=0
29400 On ch=2 n=54 v=64
29460 On ch=2 n=54 v=0
29580 On ch=2 n=66 v=64
29640 On ch=2 n=66 v=0
29640 On ch=2 n=66 v=64
29700 On ch=2 n=66 v=0
29820 On ch=2 n=61 v=64
29880 On ch=2 n=61 v=0
29940 On ch=2 n=61 v=64
30000 On ch=2 n=61 v=0
30060 On ch=2 n=61 v=64
30120 On ch=2 n=61 v=0
30180 On ch=2 n=61 v=64
30240 On ch=2 n=61 v=0
30240 On ch=2 n=61 v=64
30360 On ch=2 n=61 v=0
30660 On ch=2 n=68 v=64
30720 On ch=2 n=68 v=0
30720 On ch=2 n=66 v=64
30780 On ch=2 n=66 v=0
30780 On ch=2 n=64 v=64
30840 On ch=2 n=64 v=0
30840 On ch=2 n=63 v=64
30900 On ch=2 n=63 v=0
30900 On ch=2 n=61 v=64
30960 On ch=2 n=61 v=0
30960 On ch=2 n=59 v=64
31020 On ch=2 n=59 v=0
31020 On ch=2 n=58 v=64
31080 On ch=2 n=58 v=0
31080 On ch=2 n=59 v=64
31260 On ch=2 n=59 v=0
31260 On ch=2 n=58 v=64
31320 On ch=2 n=58 v=0
31320 On ch=2 n=61 v=64
31380 On ch=2 n=61 v=0
31380 On ch=2 n=59 v=64
31500 On ch=2 n=59 v=0
31500 On ch=2 n=58 v=64
31560 On ch=2 n=58 v=0
31560 On ch=2 n=61 v=64
31620 On ch=2 n=61 v=0
31620 On ch=2 n=59 v=64
31740 On ch=2 n=59 v=0
31740 On ch=2 n=58 v=64
31800 On ch=2 n=58 v=0
31800 On ch=2 n=59 v=64
31860 On ch=2 n=59 v=0
31860 On ch=2 n=61 v=64
31920 On ch=2 n=61 v=0
31920 On ch=2 n=54 v=64
32400 On ch=2 n=54 v=0
32400 On ch=2 n=54 v=64
32580 On ch=2 n=54 v=0
32580 On ch=2 n=58 v=64
32640 On ch=2 n=58 v=0
32640 On ch=2 n=54 v=64
32760 On ch=2 n=54 v=0
32820 On ch=2 n=58 v=64
32880 On ch=2 n=58 v=0
32880 On ch=2 n=59 v=64
33000 On ch=2 n=59 v=0
33060 On ch=2 n=58 v=64
33120 On ch=2 n=58 v=0
33120 On ch=2 n=59 v=64
33180 On ch=2 n=59 v=0
33240 On ch=2 n=59 v=64
33300 On ch=2 n=59 v=0
33360 On ch=2 n=64 v=64
33420 On ch=2 n=64 v=0
33480 On ch=2 n=64 v=64
33540 On ch=2 n=64 v=0
33540 On ch=2 n=61 v=64
33600 On ch=2 n=61 v=0
33600 On ch=2 n=63 v=64
33660 On ch=2 n=63 v=0
33660 On ch=2 n=58 v=64
33720 On ch=2 n=58 v=0
33720 On ch=2 n=59 v=64
33780 On ch=2 n=59 v=0
33780 On ch=2 n=61 v=64
33840 On ch=2 n=61 v=0
33840 On ch=2 n=63 v=64
33900 On ch=2 n=63 v=0
33900 On ch=2 n=71 v=64
33960 On ch=2 n=71 v=0
33960 On ch=2 n=71 v=64
34020 On ch=2 n=71 v=0
34020 On ch=2 n=71 v=64
34080 On ch=2 n=71 v=0
34080 On ch=2 n=71 v=64
34440 On ch=2 n=71 v=0
35040 On ch=2 n=66 v=64
35100 On ch=2 n=66 v=0
35100 On ch=2 n=66 v=64
35160 On ch=2 n=66 v=0
35160 On ch=2 n=66 v=64
35220 On ch=2 n=66 v=0
35220 On ch=2 n=66 v=64
35280 On ch=2 n=66 v=0
35280 On ch=2 n=66 v=64
35340 On ch=2 n=66 v=0
35340 On ch=2 n=66 v=64
35400 On ch=2 n=66 v=0
35400 On ch=2 n=64 v=64
35460 On ch=2 n=64 v=0
35460 On ch=2 n=64 v=64
35520 On ch=2 n=64 v=0
35520 On ch=2 n=63 v=64
35640 On ch=2 n=63 v=0
35700 On ch=2 n=58 v=64
35760 On ch=2 n=58 v=0
35760 On ch=2 n=59 v=64
35880 On ch=2 n=59 v=0
35940 On ch=2 n=58 v=64
36000 On ch=2 n=58 v=0
36000 On ch=2 n=59 v=64
36060 On ch=2 n=59 v=0
36120 On ch=2 n=59 v=64
36180 On ch=2 n=59 v=0
36240 On ch=2 n=59 v=64
36300 On ch=2 n=59 v=0
36360 On ch=2 n=64 v=64
36420 On ch=2 n=64 v=0
36420 On ch=2 n=61 v=64
36480 On ch=2 n=61 v=0
36480 On ch=2 n=63 v=64
36540 On ch=2 n=63 v=0
36540 On ch=2 n=64 v=64
36600 On ch=2 n=64 v=0
36600 On ch=2 n=63 v=64
36660 On ch=2 n=63 v=0
36660 On ch=2 n=61 v=64
36720 On ch=2 n=61 v=0
36720 On ch=2 n=59 v=64
36780 On ch=2 n=59 v=0
36780 On ch=2 n=71 v=64
36840 On ch=2 n=71 v=0
36840 On ch=2 n=72 v=64
36900 On ch=2 n=72 v=0
36900 On ch=2 n=72 v=64
36960 On ch=2 n=72 v=0
36960 On ch=2 n=72 v=64
37320 On ch=2 n=72 v=0
37920 On ch=2 n=66 v=64
38160 On ch=2 n=66 v=0
38160 On ch=2 n=64 v=64
38400 On ch=2 n=64 v=0
38400 On ch=2 n=63 v=64
38520 On ch=2 n=63 v=0
38520 On ch=2 n=68 v=64
38760 On ch=2 n=68 v=0
38760 On ch=2 n=61 v=64
39000 On ch=2 n=61 v=0
39000 On ch=2 n=66 v=64
39240 On ch=2 n=66 v=0
39240 On ch=2 n=66 v=64
39360 On ch=2 n=66 v=0
39360 On ch=2 n=64 v=64
39420 On ch=2 n=64 v=0
39420 On ch=2 n=64 v=64
39480 On ch=2 n=64 v=0
39480 On ch=2 n=64 v=64
39600 On ch=2 n=64 v=0
39840 On ch=2 n=66 v=64
39900 On ch=2 n=66 v=0
39900 On ch=2 n=66 v=64
39960 On ch=2 n=66 v=0
39960 On ch=2 n=66 v=64
40020 On ch=2 n=66 v=0
40020 On ch=2 n=66 v=64
40080 On ch=2 n=66 v=0
40080 On ch=2 n=66 v=64
40140 On ch=2 n=66 v=0
40140 On ch=2 n=66 v=64
40200 On ch=2 n=66 v=0
40200 On ch=2 n=66 v=64
40260 On ch=2 n=66 v=0
40260 On ch=2 n=58 v=64
40320 On ch=2 n=58 v=0
40320 On ch=2 n=59 v=64
40380 On ch=2 n=59 v=0
40380 On ch=2 n=61 v=64
40440 On ch=2 n=61 v=0
40440 On ch=2 n=63 v=64
40500 On ch=2 n=63 v=0
40500 On ch=2 n=66 v=64
40560 On ch=2 n=66 v=0
40560 On ch=2 n=64 v=64
40740 On ch=2 n=64 v=0
40740 On ch=2 n=61 v=64
40800 On ch=2 n=61 v=0
40800 On ch=2 n=59 v=64
40860 On ch=2 n=59 v=0
40860 On ch=2 n=61 v=64
40920 On ch=2 n=61 v=0
40920 On ch=2 n=63 v=64
40980 On ch=2 n=63 v=0
40980 On ch=2 n=66 v=64
41040 On ch=2 n=66 v=0
41040 On ch=2 n=64 v=64
41220 On ch=2 n=64 v=0
41220 On ch=2 n=61 v=64
41280 On ch=2 n=61 v=0
41280 On ch=2 n=61 v=64
41520 On ch=2 n=61 v=0
41520 On ch=2 n=59 v=64
41640 On ch=2 n=59 v=0
42180 On ch=2 n=61 v=64
42240 On ch=2 n=61 v=0
42240 On ch=2 n=66 v=64
42300 On ch=2 n=66 v=0
42300 On ch=2 n=68 v=64
42360 On ch=2 n=68 v=0
42360 On ch=2 n=69 v=64
42420 On ch=2 n=69 v=0
42420 On ch=2 n=61 v=64
42480 On ch=2 n=61 v=0
42480 On ch=2 n=60 v=64
42600 On ch=2 n=60 v=0
43140 On ch=2 n=63 v=64
43200 On ch=2 n=63 v=0
43200 On ch=2 n=63 v=64
43260 On ch=2 n=63 v=0
43260 On ch=2 n=63 v=64
43320 On ch=2 n=63 v=0
43320 On ch=2 n=63 v=64
43380 On ch=2 n=63 v=0
43380 On ch=2 n=63 v=64
43440 On ch=2 n=63 v=0
43440 On ch=2 n=63 v=64
43500 On ch=2 n=63 v=0
43500 On ch=2 n=63 v=64
43560 On ch=2 n=63 v=0
43560 On ch=2 n=63 v=64
43620 On ch=2 n=63 v=0
43620 On ch=2 n=63 v=64
43680 On ch=2 n=63 v=0
43680 On ch=2 n=63 v=64
43740 On ch=2 n=63 v=0
43740 On ch=2 n=63 v=64
43800 On ch=2 n=63 v=0
43800 On ch=2 n=63 v=64
43860 On ch=2 n=63 v=0
43860 On ch=2 n=63 v=64
43920 On ch=2 n=63 v=0
43920 On ch=2 n=63 v=64
43980 On ch=2 n=63 v=0
43980 On ch=2 n=63 v=64
44040 On ch=2 n=63 v=0
44040 On ch=2 n=63 v=64
44100 On ch=2 n=63 v=0
44100 On ch=2 n=63 v=64
44160 On ch=2 n=63 v=0
44160 On ch=2 n=59 v=64
44220 On ch=2 n=59 v=0
44220 On ch=2 n=59 v=64
44280 On ch=2 n=59 v=0
44280 On ch=2 n=59 v=64
44340 On ch=2 n=59 v=0
44340 On ch=2 n=59 v=64
44400 On ch=2 n=59 v=0
44400 On ch=2 n=59 v=64
44460 On ch=2 n=59 v=0
44460 On ch=2 n=59 v=64
44520 On ch=2 n=59 v=0
44520 On ch=2 n=59 v=64
44580 On ch=2 n=59 v=0
44580 On ch=2 n=59 v=64
44640 On ch=2 n=59 v=0
44640 On ch=2 n=58 v=64
44700 On ch=2 n=58 v=0
44700 On ch=2 n=58 v=64
44760 On ch=2 n=58 v=0
44760 On ch=2 n=58 v=64
44820 On ch=2 n=58 v=0
44820 On ch=2 n=58 v=64
44880 On ch=2 n=58 v=0
44880 On ch=2 n=58 v=64
44940 On ch=2 n=58 v=0
44940 On ch=2 n=58 v=64
45000 On ch=2 n=58 v=0
45000 On ch=2 n=58 v=64
45060 On ch=2 n=58 v=0
45060 On ch=2 n=58 v=64
45120 On ch=2 n=58 v=0
45120 On ch=2 n=58 v=64
45180 On ch=2 n=58 v=0
45180 On ch=2 n=58 v=64
45240 On ch=2 n=58 v=0
45240 On ch=2 n=58 v=64
45300 On ch=2 n=58 v=0
45300 On ch=2 n=58 v=64
45360 On ch=2 n=58 v=0
45360 On ch=2 n=58 v=64
45420 On ch=2 n=58 v=0
45420 On ch=2 n=58 v=64
45480 On ch=2 n=58 v=0
45480 On ch=2 n=58 v=64
45540 On ch=2 n=58 v=0
45540 On ch=2 n=58 v=64
45600 On ch=2 n=58 v=0
45600 On ch=2 n=56 v=64
45660 On ch=2 n=56 v=0
45660 On ch=2 n=56 v=64
45720 On ch=2 n=56 v=0
45720 On ch=2 n=56 v=64
45780 On ch=2 n=56 v=0
45780 On ch=2 n=56 v=64
45840 On ch=2 n=56 v=0
45840 On ch=2 n=56 v=64
45900 On ch=2 n=56 v=0
45900 On ch=2 n=56 v=64
45960 On ch=2 n=56 v=0
45960 On ch=2 n=56 v=64
46020 On ch=2 n=56 v=0
46020 On ch=2 n=56 v=64
46080 On ch=2 n=56 v=0
46080 On ch=2 n=56 v=64
46140 On ch=2 n=56 v=0
46140 On ch=2 n=56 v=64
46200 On ch=2 n=56 v=0
46200 On ch=2 n=56 v=64
46260 On ch=2 n=56 v=0
46260 On ch=2 n=56 v=64
46320 On ch=2 n=56 v=0
46320 On ch=2 n=64 v=64
46380 On ch=2 n=64 v=0
46380 On ch=2 n=64 v=64
46440 On ch=2 n=64 v=0
46440 On ch=2 n=64 v=64
46500 On ch=2 n=64 v=0
46500 On ch=2 n=64 v=64
46560 On ch=2 n=64 v=0
46560 On ch=2 n=66 v=64
46620 On ch=2 n=66 v=0
46620 On ch=2 n=66 v=64
46680 On ch=2 n=66 v=0
46680 On ch=2 n=66 v=64
46740 On ch=2 n=66 v=0
46740 On ch=2 n=66 v=64
46800 On ch=2 n=66 v=0
46800 On ch=2 n=63 v=64
46860 On ch=2 n=63 v=0
46860 On ch=2 n=63 v=64
46920 On ch=2 n=63 v=0
46920 On ch=2 n=63 v=64
46980 On ch=2 n=63 v=0
46980 On ch=2 n=63 v=64
47040 On ch=2 n=63 v=0
47040 On ch=2 n=61 v=64
47160 On ch=2 n=61 v=0
47220 On ch=2 n=63 v=64
47280 On ch=2 n=63 v=0
47280 On ch=2 n=61 v=64
47400 On ch=2 n=61 v=0
47460 On ch=2 n=63 v=64
47520 On ch=2 n=63 v=0
47520 On ch=2 n=61 v=64
47580 On ch=2 n=61 v=0
47640 On ch=2 n=61 v=64
47700 On ch=2 n=61 v=0
47760 On ch=2 n=61 v=64
47880 On ch=2 n=61 v=0
48000 On ch=2 n=68 v=64
48060 On ch=2 n=68 v=0
48060 On ch=2 n=68 v=64
48120 On ch=2 n=68 v=0
48120 On ch=2 n=68 v=64
48180 On ch=2 n=68 v=0
48180 On ch=2 n=68 v=64
48240 On ch=2 n=68 v=0
48240 On ch=2 n=66 v=64
48300 On ch=2 n=66 v=0
48300 On ch=2 n=66 v=64
48360 On ch=2 n=66 v=0
48360 On ch=2 n=66 v=64
48420 On ch=2 n=66 v=0
48420 On ch=2 n=66 v=64
48480 On ch=2 n=66 v=0
48480 On ch=2 n=64 v=64
48600 On ch=2 n=64 v=0
48600 On ch=2 n=69 v=64
48690 On ch=2 n=69 v=0
48690 On ch=2 n=69 v=64
48720 On ch=2 n=69 v=0
48720 On ch=2 n=69 v=64
48840 On ch=2 n=69 v=0
48960 On ch=2 n=58 v=64
49080 On ch=2 n=58 v=0
49080 On ch=2 n=58 v=64
49170 On ch=2 n=58 v=0
49170 On ch=2 n=58 v=64
49200 On ch=2 n=58 v=0
49200 On ch=2 n=58 v=64
49320 On ch=2 n=58 v=0
49440 On ch=2 n=52 v=64
49680 On ch=2 n=52 v=0
49680 On ch=2 n=53 v=64
49920 On ch=2 n=53 v=0
49920 On ch=2 n=54 v=64
50760 On ch=2 n=54 v=0
50880 On ch=2 n=52 v=64
51000 On ch=2 n=52 v=0
51000 On ch=2 n=57 v=64
51120 On ch=2 n=57 v=0
51120 On ch=2 n=56 v=64
51240 On ch=2 n=56 v=0
51540 On ch=2 n=64 v=64
51600 On ch=2 n=64 v=0
51600 On ch=2 n=66 v=64
51660 On ch=2 n=66 v=0
51660 On ch=2 n=68 v=64
51720 On ch=2 n=68 v=0
51720 On ch=2 n=69 v=64
51780 On ch=2 n=69 v=0
51780 On ch=2 n=57 v=64
51840 On ch=2 n=57 v=0
51840 On ch=2 n=59 v=64
51960 On ch=2 n=59 v=0
52020 On ch=2 n=63 v=64
52080 On ch=2 n=63 v=0
52080 On ch=2 n=64 v=64
52140 On ch=2 n=64 v=0
52140 On ch=2 n=66 v=64
52200 On ch=2 n=66 v=0
52200 On ch=2 n=68 v=64
52260 On ch=2 n=68 v=0
52260 On ch=2 n=56 v=64
52320 On ch=2 n=56 v=0
52320 On ch=2 n=57 v=64
52440 On ch=2 n=57 v=0
52500 On ch=2 n=61 v=64
52560 On ch=2 n=61 v=0
52560 On ch=2 n=63 v=64
52620 On ch=2 n=63 v=0
52620 On ch=2 n=64 v=64
52680 On ch=2 n=64 v=0
52680 On ch=2 n=66 v=64
52740 On ch=2 n=66 v=0
52740 On ch=2 n=54 v=64
52800 On ch=2 n=54 v=0
52800 On ch=2 n=56 v=64
52920 On ch=2 n=56 v=0
53160 On ch=2 n=71 v=64
53280 On ch=2 n=71 v=0
53280 On ch=2 n=73 v=64
53760 On ch=2 n=73 v=0
53760 On ch=2 n=71 v=64
54240 On ch=2 n=71 v=0
54240 On ch=2 n=69 v=64
54720 On ch=2 n=69 v=0
54720 On ch=2 n=68 v=64
55200 On ch=2 n=68 v=0
55200 On ch=2 n=66 v=64
55680 On ch=2 n=66 v=0
55680 On ch=2 n=64 v=64
55920 On ch=2 n=64 v=0
55920 On ch=2 n=67 v=64
56160 On ch=2 n=67 v=0
56160 On ch=2 n=69 v=64
56760 On ch=2 n=69 v=0
56760 On ch=2 n=59 v=64
56850 On ch=2 n=59 v=0
56850 On ch=2 n=59 v=64
56880 On ch=2 n=59 v=0
56880 On ch=2 n=59 v=64
57000 On ch=2 n=59 v=0
57120 On ch=2 n=52 v=64
57240 On ch=2 n=52 v=0
57240 On ch=2 n=57 v=64
57360 On ch=2 n=57 v=0
57360 On ch=2 n=56 v=64
57480 On ch=2 n=56 v=0
57600 On ch=2 n=52 v=64
57720 On ch=2 n=52 v=0
57720 On ch=2 n=57 v=64
57840 On ch=2 n=57 v=0
57840 On ch=2 n=54 v=64
57960 On ch=2 n=54 v=0
58080 On ch=2 n=54 v=64
58200 On ch=2 n=54 v=0
58200 On ch=2 n=56 v=64
58320 On ch=2 n=56 v=0
58320 On ch=2 n=57 v=64
58440 On ch=2 n=57 v=0
58440 On ch=2 n=61 v=64
58560 On ch=2 n=61 v=0
58560 On ch=2 n=56 v=64
58680 On ch=2 n=56 v=0
58680 On ch=2 n=56 v=64
58800 On ch=2 n=56 v=0
58800 On ch=2 n=59 v=64
59040 On ch=2 n=59 v=0
59040 On ch=2 n=61 v=64
59160 On ch=2 n=61 v=0
59160 On ch=2 n=59 v=64
59280 On ch=2 n=59 v=0
59280 On ch=2 n=57 v=64
59460 On ch=2 n=57 v=0
59460 On ch=2 n=59 v=64
59520 On ch=2 n=59 v=0
59520 On ch=2 n=61 v=64
59640 On ch=2 n=61 v=0
59640 On ch=2 n=59 v=64
59760 On ch=2 n=59 v=0
59760 On ch=2 n=52 v=64
59880 On ch=2 n=52 v=0
60000 On ch=2 n=61 v=64
60120 On ch=2 n=61 v=0
60120 On ch=2 n=59 v=64
60240 On ch=2 n=59 v=0
60240 On ch=2 n=57 v=64
60420 On ch=2 n=57 v=0
60420 On ch=2 n=59 v=64
60480 On ch=2 n=59 v=0
60480 On ch=2 n=61 v=64
60600 On ch=2 n=61 v=0
60600 On ch=2 n=59 v=64
60840 On ch=2 n=59 v=0
60840 On ch=2 n=57 v=64
60960 On ch=2 n=57 v=0
60960 On ch=2 n=61 v=64
61080 On ch=2 n=61 v=0
61500 On ch=2 n=54 v=64
61560 On ch=2 n=54 v=0
61560 On ch=2 n=54 v=64
61620 On ch=2 n=54 v=0
61740 On ch=2 n=57 v=64
61800 On ch=2 n=57 v=0
61800 On ch=2 n=57 v=64
61860 On ch=2 n=57 v=0
61980 On ch=2 n=66 v=64
62040 On ch=2 n=66 v=0
62100 On ch=2 n=66 v=64
62160 On ch=2 n=66 v=0
62220 On ch=2 n=66 v=64
62280 On ch=2 n=66 v=0
62340 On ch=2 n=66 v=64
62400 On ch=2 n=66 v=0
62400 On ch=2 n=66 v=64
62520 On ch=2 n=66 v=0
62820 On ch=2 n=73 v=64
62880 On ch=2 n=73 v=0
62880 On ch=2 n=71 v=64
62940 On ch=2 n=71 v=0
62940 On ch=2 n=69 v=64
63000 On ch=2 n=69 v=0
63000 On ch=2 n=68 v=64
63060 On ch=2 n=68 v=0
63060 On ch=2 n=66 v=64
63120 On ch=2 n=66 v=0
63120 On ch=2 n=64 v=64
63180 On ch=2 n=64 v=0
63180 On ch=2 n=63 v=64
63240 On ch=2 n=63 v=0
63240 On ch=2 n=64 v=64
63420 On ch=2 n=64 v=0
63420 On ch=2 n=63 v=64
63480 On ch=2 n=63 v=0
63480 On ch=2 n=66 v=64
63540 On ch=2 n=66 v=0
63540 On ch=2 n=64 v=64
63660 On ch=2 n=64 v=0
63660 On ch=2 n=63 v=64
63720 On ch=2 n=63 v=0
63720 On ch=2 n=66 v=64
63780 On ch=2 n=66 v=0
63780 On ch=2 n=64 v=64
63900 On ch=2 n=64 v=0
63900 On ch=2 n=63 v=64
63960 On ch=2 n=63 v=0
63960 On ch=2 n=64 v=64
64020 On ch=2 n=64 v=0
64020 On ch=2 n=66 v=64
64080 On ch=2 n=66 v=0
64080 On ch=2 n=59 v=64
64560 On ch=2 n=59 v=0
64560 On ch=2 n=59 v=64
64740 On ch=2 n=59 v=0
64740 On ch=2 n=63 v=64
64800 On ch=2 n=63 v=0
64800 On ch=2 n=59 v=64
64920 On ch=2 n=59 v=0
64980 On ch=2 n=51 v=64
65040 On ch=2 n=51 v=0
65040 On ch=2 n=52 v=64
65160 On ch=2 n=52 v=0
65220 On ch=2 n=51 v=64
65280 On ch=2 n=51 v=0
65280 On ch=2 n=52 v=64
65340 On ch=2 n=52 v=0
65400 On ch=2 n=64 v=64
65460 On ch=2 n=64 v=0
65520 On ch=2 n=64 v=64
65580 On ch=2 n=64 v=0
65640 On ch=2 n=57 v=64
65700 On ch=2 n=57 v=0
65700 On ch=2 n=54 v=64
65760 On ch=2 n=54 v=0
65760 On ch=2 n=56 v=64
65820 On ch=2 n=56 v=0
65820 On ch=2 n=63 v=64
65880 On ch=2 n=63 v=0
65880 On ch=2 n=64 v=64
65940 On ch=2 n=64 v=0
65940 On ch=2 n=66 v=64
66000 On ch=2 n=66 v=0
66000 On ch=2 n=68 v=64
66060 On ch=2 n=68 v=0
66060 On ch=2 n=66 v=64
66120 On ch=2 n=66 v=0
66120 On ch=2 n=64 v=64
66180 On ch=2 n=64 v=0
66180 On ch=2 n=64 v=64
66240 On ch=2 n=64 v=0
66240 On ch=2 n=64 v=64
66600 On ch=2 n=64 v=0
67200 On ch=2 n=59 v=64
67260 On ch=2 n=59 v=0
67260 On ch=2 n=59 v=64
67320 On ch=2 n=59 v=0
67320 On ch=2 n=59 v=64
67380 On ch=2 n=59 v=0
67380 On ch=2 n=59 v=64
67440 On ch=2 n=59 v=0
67440 On ch=2 n=59 v=64
67500 On ch=2 n=59 v=0
67500 On ch=2 n=59 v=64
67560 On ch=2 n=59 v=0
67560 On ch=2 n=57 v=64
67620 On ch=2 n=57 v=0
67620 On ch=2 n=57 v=64
67680 On ch=2 n=57 v=0
67680 On ch=2 n=56 v=64
67800 On ch=2 n=56 v=0
67860 On ch=2 n=66 v=64
67920 On ch=2 n=66 v=0
67920 On ch=2 n=64 v=64
68040 On ch=2 n=64 v=0
68100 On ch=2 n=66 v=64
68160 On ch=2 n=66 v=0
68160 On ch=2 n=64 v=64
68280 On ch=2 n=64 v=0
68340 On ch=2 n=59 v=64
68400 On ch=2 n=59 v=0
68400 On ch=2 n=61 v=64
68460 On ch=2 n=61 v=0
68520 On ch=2 n=69 v=64
68580 On ch=2 n=69 v=0
68580 On ch=2 n=66 v=64
68640 On ch=2 n=66 v=0
68640 On ch=2 n=68 v=64
68700 On ch=2 n=68 v=0
68700 On ch=2 n=69 v=64
68760 On ch=2 n=69 v=0
68760 On ch=2 n=68 v=64
68820 On ch=2 n=68 v=0
68820 On ch=2 n=66 v=64
68880 On ch=2 n=66 v=0
68880 On ch=2 n=64 v=64
69000 On ch=2 n=64 v=0
69000 On ch=2 n=65 v=64
69060 On ch=2 n=65 v=0
69060 On ch=2 n=65 v=64
69120 On ch=2 n=65 v=0
69120 On ch=2 n=65 v=64
69480 On ch=2 n=65 v=0
70080 On ch=2 n=71 v=64
70320 On ch=2 n=71 v=0
70320 On ch=2 n=69 v=64
70560 On ch=2 n=69 v=0
70560 On ch=2 n=68 v=64
70680 On ch=2 n=68 v=0
70680 On ch=2 n=73 v=64
70920 On ch=2 n=73 v=0
70920 On ch=2 n=66 v=64
71160 On ch=2 n=66 v=0
71160 On ch=2 n=71 v=64
71400 On ch=2 n=71 v=0
71400 On ch=2 n=71 v=64
71520 On ch=2 n=71 v=0
71520 On ch=2 n=73 v=64
71580 On ch=2 n=73 v=0
71580 On ch=2 n=69 v=64
71640 On ch=2 n=69 v=0
71640 On ch=2 n=69 v=64
71760 On ch=2 n=69 v=0
72000 On ch=2 n=59 v=64
72060 On ch=2 n=59 v=0
72060 On ch=2 n=59 v=64
72120 On ch=2 n=59 v=0
72120 On ch=2 n=59 v=64
72180 On ch=2 n=59 v=0
72180 On ch=2 n=59 v=64
72240 On ch=2 n=59 v=0
72240 On ch=2 n=59 v=64
72300 On ch=2 n=59 v=0
72300 On ch=2 n=59 v=64
72360 On ch=2 n=59 v=0
72360 On ch=2 n=59 v=64
72420 On ch=2 n=59 v=0
72420 On ch=2 n=63 v=64
72480 On ch=2 n=63 v=0
72480 On ch=2 n=64 v=64
72540 On ch=2 n=64 v=0
72540 On ch=2 n=66 v=64
72600 On ch=2 n=66 v=0
72600 On ch=2 n=68 v=64
72660 On ch=2 n=68 v=0
72660 On ch=2 n=71 v=64
72720 On ch=2 n=71 v=0
72720 On ch=2 n=69 v=64
72900 On ch=2 n=69 v=0
72900 On ch=2 n=54 v=64
72960 On ch=2 n=54 v=0
72960 On ch=2 n=52 v=64
73020 On ch=2 n=52 v=0
73020 On ch=2 n=54 v=64
73080 On ch=2 n=54 v=0
73080 On ch=2 n=56 v=64
73140 On ch=2 n=56 v=0
73140 On ch=2 n=59 v=64
73200 On ch=2 n=59 v=0
73200 On ch=2 n=57 v=64
73380 On ch=2 n=57 v=0
73380 On ch=2 n=54 v=64
73440 On ch=2 n=54 v=0
73440 On ch=2 n=54 v=64
73680 On ch=2 n=54 v=0
73680 On ch=2 n=52 v=64
73800 On ch=2 n=52 v=0
73800 Meta TrkEnd
TrkEnd
MTrk
480 On ch=3 n=40 v=64
600 On ch=3 n=40 v=0
600 On ch=3 n=47 v=64
720 On ch=3 n=47 v=0
720 On ch=3 n=52 v=64
840 On ch=3 n=52 v=0
960 On ch=3 n=49 v=64
1080 On ch=3 n=49 v=0
1080 On ch=3 n=45 v=64
1199 On ch=3 n=47 v=64
1200 On ch=3 n=45 v=0
1319 On ch=3 n=47 v=0
1439 On ch=3 n=51 v=64
1559 On ch=3 n=51 v=0
1559 On ch=3 n=52 v=64
1679 On ch=3 n=52 v=0
1679 On ch=3 n=45 v=64
1799 On ch=3 n=45 v=0
1799 On ch=3 n=57 v=64
1919 On ch=3 n=57 v=0
1919 On ch=3 n=56 v=64
2039 On ch=3 n=56 v=0
2039 On ch=3 n=56 v=64
2159 On ch=3 n=56 v=0
2159 On ch=3 n=56 v=64
2399 On ch=3 n=56 v=0
2399 On ch=3 n=57 v=64
2519 On ch=3 n=57 v=0
2519 On ch=3 n=59 v=64
2639 On ch=3 n=59 v=0
2639 On ch=3 n=61 v=64
2819 On ch=3 n=61 v=0
2819 On ch=3 n=59 v=64
2879 On ch=3 n=59 v=0
2879 On ch=3 n=58 v=64
2999 On ch=3 n=58 v=0
2999 On ch=3 n=59 v=64
3119 On ch=3 n=59 v=0
3119 On ch=3 n=52 v=64
3239 On ch=3 n=52 v=0
3359 On ch=3 n=40 v=64
3480 On ch=3 n=40 v=0
3480 On ch=3 n=47 v=64
3600 On ch=3 n=47 v=0
3600 On ch=3 n=52 v=64
3720 On ch=3 n=52 v=0
4080 On ch=3 n=56 v=64
4560 On ch=3 n=56 v=0
4560 On ch=3 n=49 v=64
4800 On ch=3 n=49 v=0
5040 On ch=3 n=54 v=64
6420 On ch=3 n=54 v=0
6420 On ch=3 n=52 v=64
6480 On ch=3 n=52 v=0
6480 On ch=3 n=51 v=64
6600 On ch=3 n=51 v=0
6600 On ch=3 n=51 v=64
6720 On ch=3 n=51 v=0
6720 On ch=3 n=52 v=64
6840 On ch=3 n=52 v=0
6840 On ch=3 n=54 v=64
6960 On ch=3 n=54 v=0
6960 On ch=3 n=56 v=64
7080 On ch=3 n=56 v=0
7080 On ch=3 n=54 v=64
7200 On ch=3 n=54 v=0
7200 On ch=3 n=55 v=64
7260 On ch=3 n=55 v=0
7260 On ch=3 n=55 v=64
7320 On ch=3 n=55 v=0
7320 On ch=3 n=55 v=64
7380 On ch=3 n=55 v=0
7380 On ch=3 n=55 v=64
7439 On ch=3 n=55 v=0
7439 On ch=3 n=55 v=64
7499 On ch=3 n=55 v=0
7499 On ch=3 n=55 v=64
7559 On ch=3 n=55 v=0
7559 On ch=3 n=55 v=64
7619 On ch=3 n=55 v=0
7619 On ch=3 n=55 v=64
7679 On ch=3 n=55 v=0
7679 On ch=3 n=54 v=64
7739 On ch=3 n=54 v=0
7739 On ch=3 n=54 v=64
7799 On ch=3 n=54 v=0
7799 On ch=3 n=54 v=64
7859 On ch=3 n=54 v=0
7859 On ch=3 n=54 v=64
7919 On ch=3 n=54 v=0
7919 On ch=3 n=54 v=64
7979 On ch=3 n=54 v=0
7979 On ch=3 n=54 v=64
8039 On ch=3 n=54 v=0
8039 On ch=3 n=54 v=64
8099 On ch=3 n=54 v=0
8099 On ch=3 n=54 v=64
8159 On ch=3 n=54 v=0
8159 On ch=3 n=52 v=64
8399 On ch=3 n=52 v=0
8399 On ch=3 n=52 v=64
8579 On ch=3 n=52 v=0
8579 On ch=3 n=53 v=64
8639 On ch=3 n=53 v=0
8639 On ch=3 n=54 v=64
8699 On ch=3 n=54 v=0
8699 On ch=3 n=54 v=64
8759 On ch=3 n=54 v=0
8759 On ch=3 n=54 v=64
8819 On ch=3 n=54 v=0
8939 On ch=3 n=54 v=64
8999 On ch=3 n=54 v=0
8999 On ch=3 n=54 v=64
9059 On ch=3 n=54 v=0
9179 On ch=3 n=54 v=64
9239 On ch=3 n=54 v=0
9299 On ch=3 n=54 v=64
9359 On ch=3 n=54 v=0
9419 On ch=3 n=54 v=64
9479 On ch=3 n=54 v=0
9539 On ch=3 n=54 v=64
9599 On ch=3 n=54 v=0
9599 On ch=3 n=54 v=64
9719 On ch=3 n=54 v=0
10499 On ch=3 n=55 v=64
10559 On ch=3 n=55 v=0
10559 On ch=3 n=54 v=64
10739 On ch=3 n=54 v=0
10739 On ch=3 n=55 v=64
10799 On ch=3 n=55 v=0
10799 On ch=3 n=54 v=64
10979 On ch=3 n=54 v=0
10979 On ch=3 n=55 v=64
11039 On ch=3 n=55 v=0
11039 On ch=3 n=54 v=64
11759 On ch=3 n=54 v=0
11759 On ch=3 n=54 v=64
11939 On ch=3 n=54 v=0
11939 On ch=3 n=52 v=64
11999 On ch=3 n=52 v=0
11999 On ch=3 n=51 v=64
12119 On ch=3 n=51 v=0
12179 On ch=3 n=54 v=64
12239 On ch=3 n=54 v=0
12239 On ch=3 n=51 v=64
12359 On ch=3 n=51 v=0
12419 On ch=3 n=54 v=64
12479 On ch=3 n=54 v=0
12479 On ch=3 n=51 v=64
12539 On ch=3 n=51 v=0
12599 On ch=3 n=51 v=64
12659 On ch=3 n=51 v=0
12719 On ch=3 n=52 v=64
12779 On ch=3 n=52 v=0
12839 On ch=3 n=52 v=64
12899 On ch=3 n=52 v=0
12899 On ch=3 n=52 v=64
12959 On ch=3 n=52 v=0
12959 On ch=3 n=51 v=64
13019 On ch=3 n=51 v=0
13019 On ch=3 n=46 v=64
13079 On ch=3 n=46 v=0
13079 On ch=3 n=47 v=64
13139 On ch=3 n=47 v=0
13139 On ch=3 n=49 v=64
13199 On ch=3 n=49 v=0
13199 On ch=3 n=51 v=64
13319 On ch=3 n=51 v=0
13319 On ch=3 n=51 v=64
13379 On ch=3 n=51 v=0
13379 On ch=3 n=51 v=64
13439 On ch=3 n=51 v=0
13439 On ch=3 n=51 v=64
13799 On ch=3 n=51 v=0
14399 On ch=3 n=54 v=64
14459 On ch=3 n=54 v=0
14459 On ch=3 n=54 v=64
14519 On ch=3 n=54 v=0
14519 On ch=3 n=54 v=64
14579 On ch=3 n=54 v=0
14579 On ch=3 n=54 v=64
14639 On ch=3 n=54 v=0
14639 On ch=3 n=54 v=64
14699 On ch=3 n=54 v=0
14699 On ch=3 n=54 v=64
14759 On ch=3 n=54 v=0
14759 On ch=3 n=54 v=64
14819 On ch=3 n=54 v=0
14819 On ch=3 n=54 v=64
14879 On ch=3 n=54 v=0
14879 On ch=3 n=51 v=64
14999 On ch=3 n=51 v=0
15059 On ch=3 n=54 v=64
15119 On ch=3 n=54 v=0
15119 On ch=3 n=51 v=64
15239 On ch=3 n=51 v=0
15299 On ch=3 n=54 v=64
15359 On ch=3 n=54 v=0
15359 On ch=3 n=51 v=64
15419 On ch=3 n=51 v=0
15479 On ch=3 n=51 v=64
15539 On ch=3 n=51 v=0
15599 On ch=3 n=52 v=64
15659 On ch=3 n=52 v=0
15719 On ch=3 n=52 v=64
15779 On ch=3 n=52 v=0
15779 On ch=3 n=52 v=64
15839 On ch=3 n=52 v=0
15839 On ch=3 n=51 v=64
15899 On ch=3 n=51 v=0
15899 On ch=3 n=46 v=64
15959 On ch=3 n=46 v=0
15959 On ch=3 n=47 v=64
16019 On ch=3 n=47 v=0
16019 On ch=3 n=49 v=64
16079 On ch=3 n=49 v=0
16079 On ch=3 n=51 v=64
16199 On ch=3 n=51 v=0
16199 On ch=3 n=51 v=64
16259 On ch=3 n=51 v=0
16259 On ch=3 n=51 v=64
16319 On ch=3 n=51 v=0
16319 On ch=3 n=51 v=64
16679 On ch=3 n=51 v=0
17279 On ch=3 n=54 v=64
17339 On ch=3 n=54 v=0
17339 On ch=3 n=54 v=64
17399 On ch=3 n=54 v=0
17399 On ch=3 n=54 v=64
17459 On ch=3 n=54 v=0
17459 On ch=3 n=54 v=64
17519 On ch=3 n=54 v=0
17519 On ch=3 n=55 v=64
17579 On ch=3 n=55 v=0
17579 On ch=3 n=55 v=64
17639 On ch=3 n=55 v=0
17639 On ch=3 n=55 v=64
17699 On ch=3 n=55 v=0
17699 On ch=3 n=55 v=64
17759 On ch=3 n=55 v=0
17759 On ch=3 n=56 v=64
17999 On ch=3 n=56 v=0
17999 On ch=3 n=49 v=64
18239 On ch=3 n=49 v=0
18239 On ch=3 n=54 v=64
18479 On ch=3 n=54 v=0
18479 On ch=3 n=47 v=64
18719 On ch=3 n=47 v=0
18719 On ch=3 n=52 v=64
18779 On ch=3 n=52 v=0
18779 On ch=3 n=40 v=64
18839 On ch=3 n=40 v=0
18839 On ch=3 n=40 v=64
18959 On ch=3 n=40 v=0
19199 On ch=3 n=54 v=64
19259 On ch=3 n=54 v=0
19259 On ch=3 n=54 v=64
19319 On ch=3 n=54 v=0
19319 On ch=3 n=54 v=64
19379 On ch=3 n=54 v=0
19379 On ch=3 n=54 v=64
19439 On ch=3 n=54 v=0
19439 On ch=3 n=54 v=64
19499 On ch=3 n=54 v=0
19499 On ch=3 n=54 v=64
19559 On ch=3 n=54 v=0
19559 On ch=3 n=54 v=64
19619 On ch=3 n=54 v=0
19619 On ch=3 n=54 v=64
19679 On ch=3 n=54 v=0
19679 On ch=3 n=47 v=64
20999 On ch=3 n=47 v=0
21119 On ch=3 n=40 v=64
21239 On ch=3 n=40 v=0
21239 On ch=3 n=47 v=64
21359 On ch=3 n=47 v=0
21359 On ch=3 n=52 v=64
21479 On ch=3 n=52 v=0
21599 On ch=3 n=49 v=64
21719 On ch=3 n=49 v=0
21719 On ch=3 n=45 v=64
21839 On ch=3 n=45 v=0
21839 On ch=3 n=47 v=64
21959 On ch=3 n=47 v=0
22079 On ch=3 n=51 v=64
22199 On ch=3 n=51 v=0
22199 On ch=3 n=52 v=64
22319 On ch=3 n=52 v=0
22319 On ch=3 n=45 v=64
22439 On ch=3 n=45 v=0
22439 On ch=3 n=57 v=64
22559 On ch=3 n=57 v=0
22559 On ch=3 n=56 v=64
22679 On ch=3 n=56 v=0
22679 On ch=3 n=56 v=64
22799 On ch=3 n=56 v=0
22799 On ch=3 n=56 v=64
23039 On ch=3 n=56 v=0
23039 On ch=3 n=57 v=64
23159 On ch=3 n=57 v=0
23159 On ch=3 n=59 v=64
23279 On ch=3 n=59 v=0
23279 On ch=3 n=61 v=64
23459 On ch=3 n=61 v=0
23459 On ch=3 n=59 v=64
23519 On ch=3 n=59 v=0
23519 On ch=3 n=58 v=64
23639 On ch=3 n=58 v=0
23639 On ch=3 n=59 v=64
23759 On ch=3 n=59 v=0
23759 On ch=3 n=52 v=64
23879 On ch=3 n=52 v=0
23999 On ch=3 n=40 v=64
24119 On ch=3 n=40 v=0
24119 On ch=3 n=47 v=64
24239 On ch=3 n=47 v=0
24239 On ch=3 n=52 v=64
24359 On ch=3 n=52 v=0
24719 On ch=3 n=56 v=64
25199 On ch=3 n=56 v=0
25199 On ch=3 n=49 v=64
25439 On ch=3 n=49 v=0
25679 On ch=3 n=54 v=64
27059 On ch=3 n=54 v=0
27059 On ch=3 n=52 v=64
27119 On ch=3 n=52 v=0
27119 On ch=3 n=51 v=64
27239 On ch=3 n=51 v=0
27239 On ch=3 n=51 v=64
27359 On ch=3 n=51 v=0
27359 On ch=3 n=52 v=64
27479 On ch=3 n=52 v=0
27479 On ch=3 n=54 v=64
27599 On ch=3 n=54 v=0
27599 On ch=3 n=56 v=64
27719 On ch=3 n=56 v=0
27719 On ch=3 n=54 v=64
27839 On ch=3 n=54 v=0
27839 On ch=3 n=55 v=64
27899 On ch=3 n=55 v=0
27899 On ch=3 n=55 v=64
27959 On ch=3 n=55 v=0
27959 On ch=3 n=55 v=64
28019 On ch=3 n=55 v=0
28019 On ch=3 n=55 v=64
28079 On ch=3 n=55 v=0
28079 On ch=3 n=55 v=64
28139 On ch=3 n=55 v=0
28139 On ch=3 n=55 v=64
28199 On ch=3 n=55 v=0
28199 On ch=3 n=55 v=64
28259 On ch=3 n=55 v=0
28259 On ch=3 n=55 v=64
28319 On ch=3 n=55 v=0
28319 On ch=3 n=54 v=64
28379 On ch=3 n=54 v=0
28379 On ch=3 n=54 v=64
28439 On ch=3 n=54 v=0
28439 On ch=3 n=54 v=64
28499 On ch=3 n=54 v=0
28499 On ch=3 n=54 v=64
28559 On ch=3 n=54 v=0
28559 On ch=3 n=54 v=64
28619 On ch=3 n=54 v=0
28619 On ch=3 n=54 v=64
28679 On ch=3 n=54 v=0
28679 On ch=3 n=54 v=64
28739 On ch=3 n=54 v=0
28739 On ch=3 n=54 v=64
28799 On ch=3 n=54 v=0
28799 On ch=3 n=52 v=64
29039 On ch=3 n=52 v=0
29039 On ch=3 n=52 v=64
29219 On ch=3 n=52 v=0
29219 On ch=3 n=53 v=64
29279 On ch=3 n=53 v=0
29279 On ch=3 n=54 v=64
29339 On ch=3 n=54 v=0
29339 On ch=3 n=54 v=64
29399 On ch=3 n=54 v=0
29399 On ch=3 n=54 v=64
29459 On ch=3 n=54 v=0
29579 On ch=3 n=54 v=64
29639 On ch=3 n=54 v=0
29639 On ch=3 n=54 v=64
29699 On ch=3 n=54 v=0
29819 On ch=3 n=54 v=64
29879 On ch=3 n=54 v=0
29939 On ch=3 n=54 v=64
29999 On ch=3 n=54 v=0
30059 On ch=3 n=54 v=64
30119 On ch=3 n=54 v=0
30179 On ch=3 n=54 v=64
30239 On ch=3 n=54 v=0
30239 On ch=3 n=54 v=64
30359 On ch=3 n=54 v=0
31139 On ch=3 n=55 v=64
31199 On ch=3 n=55 v=0
31199 On ch=3 n=54 v=64
31379 On ch=3 n=54 v=0
31379 On ch=3 n=55 v=64
31439 On ch=3 n=55 v=0
31439 On ch=3 n=54 v=64
31619 On ch=3 n=54 v=0
31619 On ch=3 n=55 v=64
31679 On ch=3 n=55 v=0
31679 On ch=3 n=54 v=64
32399 On ch=3 n=54 v=0
32399 On ch=3 n=54 v=64
32579 On ch=3 n=54 v=0
32579 On ch=3 n=52 v=64
32639 On ch=3 n=52 v=0
32639 On ch=3 n=51 v=64
32759 On ch=3 n=51 v=0
32819 On ch=3 n=54 v=64
32879 On ch=3 n=54 v=0
32879 On ch=3 n=51 v=64
32999 On ch=3 n=51 v=0
33059 On ch=3 n=54 v=64
33119 On ch=3 n=54 v=0
33119 On ch=3 n=51 v=64
33179 On ch=3 n=51 v=0
33240 On ch=3 n=51 v=64
33300 On ch=3 n=51 v=0
33360 On ch=3 n=52 v=64
33420 On ch=3 n=52 v=0
33480 On ch=3 n=52 v=64
33540 On ch=3 n=52 v=0
33540 On ch=3 n=52 v=64
33600 On ch=3 n=52 v=0
33600 On ch=3 n=51 v=64
33660 On ch=3 n=51 v=0
33660 On ch=3 n=46 v=64
33720 On ch=3 n=46 v=0
33720 On ch=3 n=47 v=64
33780 On ch=3 n=47 v=0
33780 On ch=3 n=49 v=64
33840 On ch=3 n=49 v=0
33840 On ch=3 n=51 v=64
33960 On ch=3 n=51 v=0
33960 On ch=3 n=51 v=64
34020 On ch=3 n=51 v=0
34020 On ch=3 n=51 v=64
34080 On ch=3 n=51 v=0
34080 On ch=3 n=51 v=64
34440 On ch=3 n=51 v=0
35040 On ch=3 n=54 v=64
35100 On ch=3 n=54 v=0
35100 On ch=3 n=54 v=64
35160 On ch=3 n=54 v=0
35160 On ch=3 n=54 v=64
35220 On ch=3 n=54 v=0
35220 On ch=3 n=54 v=64
35280 On ch=3 n=54 v=0
35280 On ch=3 n=54 v=64
35340 On ch=3 n=54 v=0
35340 On ch=3 n=54 v=64
35400 On ch=3 n=54 v=0
35400 On ch=3 n=54 v=64
35460 On ch=3 n=54 v=0
35460 On ch=3 n=54 v=64
35520 On ch=3 n=54 v=0
35520 On ch=3 n=51 v=64
35640 On ch=3 n=51 v=0
35700 On ch=3 n=54 v=64
35760 On ch=3 n=54 v=0
35760 On ch=3 n=51 v=64
35880 On ch=3 n=51 v=0
35940 On ch=3 n=54 v=64
36000 On ch=3 n=54 v=0
36000 On ch=3 n=51 v=64
36060 On ch=3 n=51 v=0
36120 On ch=3 n=51 v=64
36180 On ch=3 n=51 v=0
36240 On ch=3 n=52 v=64
36300 On ch=3 n=52 v=0
36360 On ch=3 n=52 v=64
36420 On ch=3 n=52 v=0
36420 On ch=3 n=52 v=64
36480 On ch=3 n=52 v=0
36480 On ch=3 n=51 v=64
36540 On ch=3 n=51 v=0
36540 On ch=3 n=46 v=64
36600 On ch=3 n=46 v=0
36600 On ch=3 n=47 v=64
36660 On ch=3 n=47 v=0
36660 On ch=3 n=49 v=64
36720 On ch=3 n=49 v=0
36720 On ch=3 n=51 v=64
36840 On ch=3 n=51 v=0
36840 On ch=3 n=51 v=64
36900 On ch=3 n=51 v=0
36900 On ch=3 n=51 v=64
36960 On ch=3 n=51 v=0
36960 On ch=3 n=51 v=64
37320 On ch=3 n=51 v=0
37920 On ch=3 n=54 v=64
37980 On ch=3 n=54 v=0
37980 On ch=3 n=54 v=64
38040 On ch=3 n=54 v=0
38040 On ch=3 n=54 v=64
38100 On ch=3 n=54 v=0
38100 On ch=3 n=54 v=64
38160 On ch=3 n=54 v=0
38160 On ch=3 n=55 v=64
38220 On ch=3 n=55 v=0
38220 On ch=3 n=55 v=64
38280 On ch=3 n=55 v=0
38280 On ch=3 n=55 v=64
38340 On ch=3 n=55 v=0
38340 On ch=3 n=55 v=64
38400 On ch=3 n=55 v=0
38400 On ch=3 n=56 v=64
38640 On ch=3 n=56 v=0
38640 On ch=3 n=49 v=64
38880 On ch=3 n=49 v=0
38880 On ch=3 n=54 v=64
39120 On ch=3 n=54 v=0
39120 On ch=3 n=47 v=64
39360 On ch=3 n=47 v=0
39360 On ch=3 n=52 v=64
39420 On ch=3 n=52 v=0
39420 On ch=3 n=40 v=64
39480 On ch=3 n=40 v=0
39480 On ch=3 n=40 v=64
39600 On ch=3 n=40 v=0
39840 On ch=3 n=54 v=64
39900 On ch=3 n=54 v=0
39900 On ch=3 n=54 v=64
39960 On ch=3 n=54 v=0
39960 On ch=3 n=54 v=64
40020 On ch=3 n=54 v=0
40020 On ch=3 n=54 v=64
40080 On ch=3 n=54 v=0
40080 On ch=3 n=54 v=64
40140 On ch=3 n=54 v=0
40140 On ch=3 n=54 v=64
40200 On ch=3 n=54 v=0
40200 On ch=3 n=54 v=64
40260 On ch=3 n=54 v=0
40260 On ch=3 n=54 v=64
40320 On ch=3 n=54 v=0
40320 On ch=3 n=47 v=64
41640 On ch=3 n=47 v=0
41700 On ch=3 n=47 v=64
41760 On ch=3 n=47 v=0
41760 On ch=3 n=59 v=64
41820 On ch=3 n=59 v=0
41820 On ch=3 n=61 v=64
41880 On ch=3 n=61 v=0
41880 On ch=3 n=62 v=64
41940 On ch=3 n=62 v=0
41940 On ch=3 n=54 v=64
42000 On ch=3 n=54 v=0
42000 On ch=3 n=53 v=64
42120 On ch=3 n=53 v=0
42660 On ch=3 n=56 v=64
42720 On ch=3 n=56 v=0
42720 On ch=3 n=61 v=64
42780 On ch=3 n=61 v=0
42780 On ch=3 n=63 v=64
42840 On ch=3 n=63 v=0
42840 On ch=3 n=64 v=64
42900 On ch=3 n=64 v=0
42900 On ch=3 n=56 v=64
42960 On ch=3 n=56 v=0
42960 On ch=3 n=55 v=64
43080 On ch=3 n=55 v=0
43140 On ch=3 n=55 v=64
43200 On ch=3 n=55 v=0
43200 On ch=3 n=56 v=64
43260 On ch=3 n=56 v=0
43260 On ch=3 n=56 v=64
43320 On ch=3 n=56 v=0
43320 On ch=3 n=56 v=64
43380 On ch=3 n=56 v=0
43380 On ch=3 n=56 v=64
43440 On ch=3 n=56 v=0
43440 On ch=3 n=56 v=64
43500 On ch=3 n=56 v=0
43500 On ch=3 n=56 v=64
43560 On ch=3 n=56 v=0
43560 On ch=3 n=56 v=64
43620 On ch=3 n=56 v=0
43620 On ch=3 n=56 v=64
43680 On ch=3 n=56 v=0
43680 On ch=3 n=55 v=64
43740 On ch=3 n=55 v=0
43740 On ch=3 n=55 v=64
43800 On ch=3 n=55 v=0
43800 On ch=3 n=55 v=64
43860 On ch=3 n=55 v=0
43860 On ch=3 n=55 v=64
43920 On ch=3 n=55 v=0
43920 On ch=3 n=55 v=64
43980 On ch=3 n=55 v=0
43980 On ch=3 n=55 v=64
44040 On ch=3 n=55 v=0
44040 On ch=3 n=55 v=64
44100 On ch=3 n=55 v=0
44100 On ch=3 n=55 v=64
44160 On ch=3 n=55 v=0
44160 On ch=3 n=56 v=64
44220 On ch=3 n=56 v=0
44220 On ch=3 n=56 v=64
44280 On ch=3 n=56 v=0
44280 On ch=3 n=56 v=64
44340 On ch=3 n=56 v=0
44340 On ch=3 n=56 v=64
44400 On ch=3 n=56 v=0
44400 On ch=3 n=56 v=64
44460 On ch=3 n=56 v=0
44460 On ch=3 n=56 v=64
44520 On ch=3 n=56 v=0
44520 On ch=3 n=56 v=64
44580 On ch=3 n=56 v=0
44580 On ch=3 n=56 v=64
44640 On ch=3 n=56 v=0
44640 On ch=3 n=56 v=64
44700 On ch=3 n=56 v=0
44700 On ch=3 n=56 v=64
44760 On ch=3 n=56 v=0
44760 On ch=3 n=56 v=64
44820 On ch=3 n=56 v=0
44820 On ch=3 n=56 v=64
44880 On ch=3 n=56 v=0
44880 On ch=3 n=56 v=64
44940 On ch=3 n=56 v=0
44940 On ch=3 n=56 v=64
45000 On ch=3 n=56 v=0
45000 On ch=3 n=56 v=64
45060 On ch=3 n=56 v=0
45060 On ch=3 n=56 v=64
45120 On ch=3 n=56 v=0
45120 On ch=3 n=54 v=64
45180 On ch=3 n=54 v=0
45180 On ch=3 n=54 v=64
45240 On ch=3 n=54 v=0
45240 On ch=3 n=54 v=64
45300 On ch=3 n=54 v=0
45300 On ch=3 n=54 v=64
45360 On ch=3 n=54 v=0
45360 On ch=3 n=54 v=64
45420 On ch=3 n=54 v=0
45420 On ch=3 n=54 v=64
45480 On ch=3 n=54 v=0
45480 On ch=3 n=54 v=64
45540 On ch=3 n=54 v=0
45540 On ch=3 n=54 v=64
45600 On ch=3 n=54 v=0
45600 On ch=3 n=54 v=64
45660 On ch=3 n=54 v=0
45660 On ch=3 n=54 v=64
45720 On ch=3 n=54 v=0
45720 On ch=3 n=54 v=64
45780 On ch=3 n=54 v=0
45780 On ch=3 n=54 v=64
45840 On ch=3 n=54 v=0
45840 On ch=3 n=54 v=64
45900 On ch=3 n=54 v=0
45900 On ch=3 n=54 v=64
45960 On ch=3 n=54 v=0
45960 On ch=3 n=54 v=64
46020 On ch=3 n=54 v=0
46020 On ch=3 n=54 v=64
46080 On ch=3 n=54 v=0
46080 On ch=3 n=52 v=64
46140 On ch=3 n=52 v=0
46140 On ch=3 n=52 v=64
46200 On ch=3 n=52 v=0
46200 On ch=3 n=52 v=64
46260 On ch=3 n=52 v=0
46260 On ch=3 n=52 v=64
46320 On ch=3 n=52 v=0
46320 On ch=3 n=52 v=64
46380 On ch=3 n=52 v=0
46380 On ch=3 n=52 v=64
46440 On ch=3 n=52 v=0
46440 On ch=3 n=52 v=64
46500 On ch=3 n=52 v=0
46500 On ch=3 n=52 v=64
46560 On ch=3 n=52 v=0
46560 On ch=3 n=48 v=64
46620 On ch=3 n=48 v=0
46620 On ch=3 n=48 v=64
46680 On ch=3 n=48 v=0
46680 On ch=3 n=48 v=64
46740 On ch=3 n=48 v=0
46740 On ch=3 n=48 v=64
46800 On ch=3 n=48 v=0
46800 On ch=3 n=48 v=64
46860 On ch=3 n=48 v=0
46860 On ch=3 n=48 v=64
46920 On ch=3 n=48 v=0
46920 On ch=3 n=48 v=64
46980 On ch=3 n=48 v=0
46980 On ch=3 n=48 v=64
47040 On ch=3 n=48 v=0
47040 On ch=3 n=49 v=64
47160 On ch=3 n=49 v=0
47220 On ch=3 n=48 v=64
47280 On ch=3 n=48 v=0
47280 On ch=3 n=49 v=64
47400 On ch=3 n=49 v=0
47460 On ch=3 n=60 v=64
47520 On ch=3 n=60 v=0
47520 On ch=3 n=61 v=64
47580 On ch=3 n=61 v=0
47640 On ch=3 n=52 v=64
47700 On ch=3 n=52 v=0
47760 On ch=3 n=54 v=64
47880 On ch=3 n=54 v=0
48000 On ch=3 n=56 v=64
48060 On ch=3 n=56 v=0
48060 On ch=3 n=56 v=64
48120 On ch=3 n=56 v=0
48120 On ch=3 n=56 v=64
48180 On ch=3 n=56 v=0
48180 On ch=3 n=56 v=64
48240 On ch=3 n=56 v=0
48240 On ch=3 n=56 v=64
48300 On ch=3 n=56 v=0
48300 On ch=3 n=56 v=64
48360 On ch=3 n=56 v=0
48360 On ch=3 n=56 v=64
48420 On ch=3 n=56 v=0
48420 On ch=3 n=56 v=64
48480 On ch=3 n=56 v=0
48480 On ch=3 n=57 v=64
48600 On ch=3 n=57 v=0
48600 On ch=3 n=57 v=64
48690 On ch=3 n=57 v=0
48690 On ch=3 n=57 v=64
48720 On ch=3 n=57 v=0
48720 On ch=3 n=57 v=64
48840 On ch=3 n=57 v=0
48960 On ch=3 n=43 v=64
49080 On ch=3 n=43 v=0
49080 On ch=3 n=43 v=64
49170 On ch=3 n=43 v=0
49170 On ch=3 n=43 v=64
49200 On ch=3 n=43 v=0
49200 On ch=3 n=43 v=64
49320 On ch=3 n=43 v=0
49440 On ch=3 n=44 v=64
49920 On ch=3 n=44 v=0
49920 On ch=3 n=45 v=64
50400 On ch=3 n=45 v=0
50400 On ch=3 n=47 v=64
50760 On ch=3 n=47 v=0
50880 On ch=3 n=40 v=64
51000 On ch=3 n=40 v=0
51000 On ch=3 n=47 v=64
51120 On ch=3 n=47 v=0
51120 On ch=3 n=52 v=64
51240 On ch=3 n=52 v=0
51300 On ch=3 n=64 v=64
51360 On ch=3 n=64 v=0
51360 On ch=3 n=61 v=64
51420 On ch=3 n=61 v=0
51420 On ch=3 n=59 v=64
51480 On ch=3 n=59 v=0
51480 On ch=3 n=57 v=64
51540 On ch=3 n=57 v=0
51540 On ch=3 n=56 v=64
51600 On ch=3 n=56 v=0
51600 On ch=3 n=54 v=64
51660 On ch=3 n=54 v=0
51660 On ch=3 n=52 v=64
51720 On ch=3 n=52 v=0
51720 On ch=3 n=51 v=64
51780 On ch=3 n=51 v=0
51780 On ch=3 n=63 v=64
51840 On ch=3 n=63 v=0
51840 On ch=3 n=59 v=64
51900 On ch=3 n=59 v=0
51900 On ch=3 n=57 v=64
51960 On ch=3 n=57 v=0
51960 On ch=3 n=56 v=64
52020 On ch=3 n=56 v=0
52020 On ch=3 n=54 v=64
52080 On ch=3 n=54 v=0
52080 On ch=3 n=52 v=64
52140 On ch=3 n=52 v=0
52140 On ch=3 n=51 v=64
52200 On ch=3 n=51 v=0
52200 On ch=3 n=49 v=64
52260 On ch=3 n=49 v=0
52260 On ch=3 n=61 v=64
52320 On ch=3 n=61 v=0
52320 On ch=3 n=57 v=64
52380 On ch=3 n=57 v=0
52380 On ch=3 n=56 v=64
52440 On ch=3 n=56 v=0
52440 On ch=3 n=54 v=64
52500 On ch=3 n=54 v=0
52500 On ch=3 n=52 v=64
52560 On ch=3 n=52 v=0
52560 On ch=3 n=51 v=64
52620 On ch=3 n=51 v=0
52620 On ch=3 n=49 v=64
52680 On ch=3 n=49 v=0
52680 On ch=3 n=47 v=64
52740 On ch=3 n=47 v=0
52740 On ch=3 n=59 v=64
52800 On ch=3 n=59 v=0
52800 On ch=3 n=56 v=64
52860 On ch=3 n=56 v=0
52860 On ch=3 n=54 v=64
52920 On ch=3 n=54 v=0
52920 On ch=3 n=52 v=64
52980 On ch=3 n=52 v=0
52980 On ch=3 n=57 v=64
53040 On ch=3 n=57 v=0
53040 On ch=3 n=54 v=64
53100 On ch=3 n=54 v=0
53100 On ch=3 n=52 v=64
53160 On ch=3 n=52 v=0
53160 On ch=3 n=51 v=64
53220 On ch=3 n=51 v=0
53220 On ch=3 n=59 v=64
53280 On ch=3 n=59 v=0
53280 On ch=3 n=61 v=64
53340 On ch=3 n=61 v=0
53340 On ch=3 n=63 v=64
53400 On ch=3 n=63 v=0
53400 On ch=3 n=64 v=64
53460 On ch=3 n=64 v=0
53460 On ch=3 n=56 v=64
53520 On ch=3 n=56 v=0
53520 On ch=3 n=57 v=64
53580 On ch=3 n=57 v=0
53580 On ch=3 n=59 v=64
53640 On ch=3 n=59 v=0
53640 On ch=3 n=61 v=64
53700 On ch=3 n=61 v=0
53700 On ch=3 n=58 v=64
53760 On ch=3 n=58 v=0
53760 On ch=3 n=59 v=64
53820 On ch=3 n=59 v=0
53820 On ch=3 n=61 v=64
53880 On ch=3 n=61 v=0
53880 On ch=3 n=63 v=64
53940 On ch=3 n=63 v=0
53940 On ch=3 n=54 v=64
54000 On ch=3 n=54 v=0
54000 On ch=3 n=56 v=64
54060 On ch=3 n=56 v=0
54060 On ch=3 n=57 v=64
54120 On ch=3 n=57 v=0
54120 On ch=3 n=59 v=64
54180 On ch=3 n=59 v=0
54180 On ch=3 n=56 v=64
54240 On ch=3 n=56 v=0
54240 On ch=3 n=57 v=64
54300 On ch=3 n=57 v=0
54300 On ch=3 n=59 v=64
54360 On ch=3 n=59 v=0
54360 On ch=3 n=61 v=64
54420 On ch=3 n=61 v=0
54420 On ch=3 n=52 v=64
54480 On ch=3 n=52 v=0
54480 On ch=3 n=54 v=64
54540 On ch=3 n=54 v=0
54540 On ch=3 n=56 v=64
54600 On ch=3 n=56 v=0
54600 On ch=3 n=57 v=64
54660 On ch=3 n=57 v=0
54660 On ch=3 n=54 v=64
54720 On ch=3 n=54 v=0
54720 On ch=3 n=56 v=64
54780 On ch=3 n=56 v=0
54780 On ch=3 n=57 v=64
54840 On ch=3 n=57 v=0
54840 On ch=3 n=59 v=64
54900 On ch=3 n=59 v=0
54900 On ch=3 n=51 v=64
54960 On ch=3 n=51 v=0
54960 On ch=3 n=52 v=64
55020 On ch=3 n=52 v=0
55020 On ch=3 n=54 v=64
55080 On ch=3 n=54 v=0
55080 On ch=3 n=56 v=64
55140 On ch=3 n=56 v=0
55140 On ch=3 n=49 v=64
55200 On ch=3 n=49 v=0
55200 On ch=3 n=54 v=64
55260 On ch=3 n=54 v=0
55260 On ch=3 n=56 v=64
55320 On ch=3 n=56 v=0
55320 On ch=3 n=57 v=64
55380 On ch=3 n=57 v=0
55380 On ch=3 n=49 v=64
55440 On ch=3 n=49 v=0
55440 On ch=3 n=51 v=64
55500 On ch=3 n=51 v=0
55500 On ch=3 n=52 v=64
55560 On ch=3 n=52 v=0
55560 On ch=3 n=54 v=64
55620 On ch=3 n=54 v=0
55620 On ch=3 n=51 v=64
55680 On ch=3 n=51 v=0
55680 On ch=3 n=52 v=64
55740 On ch=3 n=52 v=0
55740 On ch=3 n=54 v=64
55800 On ch=3 n=54 v=0
55800 On ch=3 n=55 v=64
55860 On ch=3 n=55 v=0
55860 On ch=3 n=52 v=64
55920 On ch=3 n=52 v=0
55920 On ch=3 n=48 v=64
55980 On ch=3 n=48 v=0
55980 On ch=3 n=51 v=64
56040 On ch=3 n=51 v=0
56040 On ch=3 n=52 v=64
56100 On ch=3 n=52 v=0
56100 On ch=3 n=48 v=64
56160 On ch=3 n=48 v=0
56160 On ch=3 n=45 v=64
56220 On ch=3 n=45 v=0
56220 On ch=3 n=47 v=64
56280 On ch=3 n=47 v=0
56280 On ch=3 n=48 v=64
56340 On ch=3 n=48 v=0
56340 On ch=3 n=45 v=64
56400 On ch=3 n=45 v=0
56400 On ch=3 n=42 v=64
56460 On ch=3 n=42 v=0
56460 On ch=3 n=45 v=64
56520 On ch=3 n=45 v=0
56520 On ch=3 n=40 v=64
56580 On ch=3 n=40 v=0
56580 On ch=3 n=45 v=64
56640 On ch=3 n=45 v=0
56640 On ch=3 n=39 v=64
56760 On ch=3 n=39 v=0
56760 On ch=3 n=39 v=64
56850 On ch=3 n=39 v=0
56850 On ch=3 n=39 v=64
56880 On ch=3 n=39 v=0
56880 On ch=3 n=39 v=64
57000 On ch=3 n=39 v=0
57120 On ch=3 n=40 v=64
57240 On ch=3 n=40 v=0
57240 On ch=3 n=47 v=64
57360 On ch=3 n=47 v=0
57360 On ch=3 n=52 v=64
57480 On ch=3 n=52 v=0
57600 On ch=3 n=49 v=64
57720 On ch=3 n=49 v=0
57720 On ch=3 n=45 v=64
57840 On ch=3 n=45 v=0
57840 On ch=3 n=47 v=64
57960 On ch=3 n=47 v=0
58080 On ch=3 n=51 v=64
58200 On ch=3 n=51 v=0
58200 On ch=3 n=52 v=64
58320 On ch=3 n=52 v=0
58320 On ch=3 n=45 v=64
58440 On ch=3 n=45 v=0
58440 On ch=3 n=57 v=64
58560 On ch=3 n=57 v=0
58560 On ch=3 n=56 v=64
58680 On ch=3 n=56 v=0
58680 On ch=3 n=56 v=64
58800 On ch=3 n=56 v=0
58800 On ch=3 n=56 v=64
59040 On ch=3 n=56 v=0
59040 On ch=3 n=57 v=64
59160 On ch=3 n=57 v=0
59160 On ch=3 n=59 v=64
59280 On ch=3 n=59 v=0
59280 On ch=3 n=61 v=64
59460 On ch=3 n=61 v=0
59460 On ch=3 n=59 v=64
59520 On ch=3 n=59 v=0
59520 On ch=3 n=58 v=64
59640 On ch=3 n=58 v=0
59640 On ch=3 n=59 v=64
59760 On ch=3 n=59 v=0
59760 On ch=3 n=52 v=64
59880 On ch=3 n=52 v=0
60000 On ch=3 n=57 v=64
60120 On ch=3 n=57 v=0
60120 On ch=3 n=59 v=64
60240 On ch=3 n=59 v=0
60240 On ch=3 n=61 v=64
60420 On ch=3 n=61 v=0
60420 On ch=3 n=59 v=64
60480 On ch=3 n=59 v=0
60480 On ch=3 n=58 v=64
60600 On ch=3 n=58 v=0
60600 On ch=3 n=59 v=64
60720 On ch=3 n=59 v=0
60720 On ch=3 n=56 v=64
60840 On ch=3 n=56 v=0
60840 On ch=3 n=57 v=64
60960 On ch=3 n=57 v=0
60960 On ch=3 n=45 v=64
61140 On ch=3 n=45 v=0
61500 On ch=3 n=47 v=64
61560 On ch=3 n=47 v=0
61560 On ch=3 n=47 v=64
61620 On ch=3 n=47 v=0
61740 On ch=3 n=47 v=64
61800 On ch=3 n=47 v=0
61800 On ch=3 n=47 v=64
61860 On ch=3 n=47 v=0
61980 On ch=3 n=47 v=64
62040 On ch=3 n=47 v=0
62100 On ch=3 n=47 v=64
62160 On ch=3 n=47 v=0
62220 On ch=3 n=47 v=64
62280 On ch=3 n=47 v=0
62340 On ch=3 n=47 v=64
62400 On ch=3 n=47 v=0
62400 On ch=3 n=47 v=64
62520 On ch=3 n=47 v=0
63300 On ch=3 n=60 v=64
63360 On ch=3 n=60 v=0
63360 On ch=3 n=59 v=64
63540 On ch=3 n=59 v=0
63540 On ch=3 n=60 v=64
63600 On ch=3 n=60 v=0
63600 On ch=3 n=59 v=64
63780 On ch=3 n=59 v=0
63780 On ch=3 n=60 v=64
63840 On ch=3 n=60 v=0
63840 On ch=3 n=59 v=64
64560 On ch=3 n=59 v=0
64560 On ch=3 n=59 v=64
64740 On ch=3 n=59 v=0
64740 On ch=3 n=57 v=64
64800 On ch=3 n=57 v=0
64800 On ch=3 n=56 v=64
64920 On ch=3 n=56 v=0
64980 On ch=3 n=59 v=64
65040 On ch=3 n=59 v=0
65040 On ch=3 n=56 v=64
65160 On ch=3 n=56 v=0
65220 On ch=3 n=59 v=64
65280 On ch=3 n=59 v=0
65280 On ch=3 n=56 v=64
65340 On ch=3 n=56 v=0
65400 On ch=3 n=56 v=64
65460 On ch=3 n=56 v=0
65520 On ch=3 n=57 v=64
65580 On ch=3 n=57 v=0
65640 On ch=3 n=57 v=64
65700 On ch=3 n=57 v=0
65700 On ch=3 n=57 v=64
65760 On ch=3 n=57 v=0
65760 On ch=3 n=56 v=64
65820 On ch=3 n=56 v=0
65820 On ch=3 n=51 v=64
65880 On ch=3 n=51 v=0
65880 On ch=3 n=52 v=64
65940 On ch=3 n=52 v=0
65940 On ch=3 n=54 v=64
66000 On ch=3 n=54 v=0
66000 On ch=3 n=56 v=64
66120 On ch=3 n=56 v=0
66120 On ch=3 n=56 v=64
66180 On ch=3 n=56 v=0
66180 On ch=3 n=56 v=64
66240 On ch=3 n=56 v=0
66240 On ch=3 n=56 v=64
66600 On ch=3 n=56 v=0
67200 On ch=3 n=59 v=64
67260 On ch=3 n=59 v=0
67260 On ch=3 n=59 v=64
67320 On ch=3 n=59 v=0
67320 On ch=3 n=59 v=64
67380 On ch=3 n=59 v=0
67380 On ch=3 n=59 v=64
67440 On ch=3 n=59 v=0
67440 On ch=3 n=59 v=64
67500 On ch=3 n=59 v=0
67500 On ch=3 n=59 v=64
67560 On ch=3 n=59 v=0
67560 On ch=3 n=59 v=64
67620 On ch=3 n=59 v=0
67620 On ch=3 n=59 v=64
67680 On ch=3 n=59 v=0
67680 On ch=3 n=52 v=64
67800 On ch=3 n=52 v=0
67860 On ch=3 n=47 v=64
67920 On ch=3 n=47 v=0
67920 On ch=3 n=52 v=64
68040 On ch=3 n=52 v=0
68100 On ch=3 n=47 v=64
68160 On ch=3 n=47 v=0
68160 On ch=3 n=52 v=64
68220 On ch=3 n=52 v=0
68280 On ch=3 n=56 v=64
68340 On ch=3 n=56 v=0
68400 On ch=3 n=57 v=64
68460 On ch=3 n=57 v=0
68520 On ch=3 n=57 v=64
68580 On ch=3 n=57 v=0
68580 On ch=3 n=57 v=64
68640 On ch=3 n=57 v=0
68640 On ch=3 n=56 v=64
68700 On ch=3 n=56 v=0
68700 On ch=3 n=51 v=64
68760 On ch=3 n=51 v=0
68760 On ch=3 n=52 v=64
68820 On ch=3 n=52 v=0
68820 On ch=3 n=54 v=64
68880 On ch=3 n=54 v=0
68880 On ch=3 n=56 v=64
69000 On ch=3 n=56 v=0
69000 On ch=3 n=56 v=64
69060 On ch=3 n=56 v=0
69060 On ch=3 n=56 v=64
69120 On ch=3 n=56 v=0
69120 On ch=3 n=56 v=64
69480 On ch=3 n=56 v=0
70080 On ch=3 n=59 v=64
70140 On ch=3 n=59 v=0
70140 On ch=3 n=59 v=64
70200 On ch=3 n=59 v=0
70200 On ch=3 n=59 v=64
70260 On ch=3 n=59 v=0
70260 On ch=3 n=59 v=64
70320 On ch=3 n=59 v=0
70320 On ch=3 n=60 v=64
70380 On ch=3 n=60 v=0
70380 On ch=3 n=60 v=64
70440 On ch=3 n=60 v=0
70440 On ch=3 n=60 v=64
70500 On ch=3 n=60 v=0
70500 On ch=3 n=60 v=64
70560 On ch=3 n=60 v=0
70560 On ch=3 n=61 v=64
70800 On ch=3 n=61 v=0
70800 On ch=3 n=54 v=64
71040 On ch=3 n=54 v=0
71040 On ch=3 n=59 v=64
71280 On ch=3 n=59 v=0
71280 On ch=3 n=52 v=64
71520 On ch=3 n=52 v=0
71520 On ch=3 n=57 v=64
71580 On ch=3 n=57 v=0
71580 On ch=3 n=45 v=64
71640 On ch=3 n=45 v=0
71640 On ch=3 n=45 v=64
71760 On ch=3 n=45 v=0
72000 On ch=3 n=47 v=64
72060 On ch=3 n=47 v=0
72060 On ch=3 n=47 v=64
72120 On ch=3 n=47 v=0
72120 On ch=3 n=47 v=64
72180 On ch=3 n=47 v=0
72180 On ch=3 n=47 v=64
72240 On ch=3 n=47 v=0
72240 On ch=3 n=47 v=64
72300 On ch=3 n=47 v=0
72300 On ch=3 n=47 v=64
72360 On ch=3 n=47 v=0
72360 On ch=3 n=47 v=64
72420 On ch=3 n=47 v=0
72420 On ch=3 n=47 v=64
72480 On ch=3 n=47 v=0
72480 On ch=3 n=52 v=64
72960 On ch=3 n=52 v=0
72960 On ch=3 n=40 v=64
73440 On ch=3 n=40 v=0
73440 On ch=3 n=40 v=64
73800 On ch=3 n=40 v=0
73800 Meta TrkEnd
TrkEnd
